<svg width="254" height="254" viewBox="0 0 254 254" fill="none" xmlns="http://www.w3.org/2000/svg">
<g filter="url(#filter0_d_9_547)">
<rect x="15.3719" y="11.5293" width="223" height="223" rx="25.6198" fill="#EF462E"/>
</g>
<path d="M37.1907 202.683V199.76H50.9632V202.683H45.8292V216.529H42.3247V202.683H37.1907ZM57.0736 216.775C55.7799 216.775 54.6663 216.513 53.7328 215.989C52.8049 215.459 52.0898 214.712 51.5875 213.745C51.0853 212.774 50.8342 211.625 50.8342 210.298C50.8342 209.004 51.0853 207.869 51.5875 206.892C52.0898 205.915 52.7967 205.153 53.7083 204.607C54.6254 204.061 55.7007 203.789 56.9344 203.789C57.7641 203.789 58.5366 203.922 59.2517 204.19C59.9722 204.452 60.6 204.848 61.1349 205.377C61.6754 205.907 62.0957 206.572 62.3959 207.375C62.6961 208.172 62.8463 209.105 62.8463 210.175V211.133H52.2262V208.972H59.5628C59.5628 208.469 59.4536 208.025 59.2353 207.637C59.0169 207.249 58.714 206.946 58.3264 206.728C57.9443 206.504 57.4994 206.392 56.9917 206.392C56.4622 206.392 55.9928 206.515 55.5834 206.761C55.1794 207.001 54.8628 207.326 54.6335 207.735C54.4043 208.139 54.2869 208.59 54.2815 209.086V211.141C54.2815 211.764 54.3961 212.301 54.6254 212.755C54.8601 213.208 55.1903 213.557 55.6161 213.803C56.0419 214.048 56.5468 214.171 57.1309 214.171C57.5185 214.171 57.8733 214.117 58.1954 214.007C58.5175 213.898 58.7931 213.734 59.0224 213.516C59.2517 213.298 59.4263 213.03 59.5464 212.714L62.7726 212.927C62.6088 213.702 62.2731 214.379 61.7654 214.957C61.2632 215.53 60.6136 215.978 59.8166 216.3C59.0251 216.617 58.1108 216.775 57.0736 216.775ZM65.1226 216.529V203.952H68.5043V206.147H68.6353C68.8646 205.366 69.2494 204.777 69.7898 204.378C70.3302 203.974 70.9525 203.772 71.6567 203.772C71.8314 203.772 72.0197 203.783 72.2217 203.805C72.4237 203.827 72.6011 203.857 72.7539 203.895V206.99C72.5902 206.941 72.3636 206.897 72.0743 206.859C71.785 206.821 71.5203 206.802 71.2801 206.802C70.7669 206.802 70.3084 206.914 69.9045 207.137C69.506 207.356 69.1894 207.662 68.9546 208.055C68.7254 208.448 68.6107 208.901 68.6107 209.414V216.529H65.1226ZM74.5574 216.529V203.952H77.9391V206.147H78.0701C78.2994 205.366 78.6842 204.777 79.2246 204.378C79.765 203.974 80.3873 203.772 81.0915 203.772C81.2662 203.772 81.4545 203.783 81.6565 203.805C81.8585 203.827 82.0359 203.857 82.1887 203.895V206.99C82.025 206.941 81.7984 206.897 81.5091 206.859C81.2198 206.821 80.9551 206.802 80.7149 206.802C80.2017 206.802 79.7432 206.914 79.3393 207.137C78.9408 207.356 78.6242 207.662 78.3894 208.055C78.1602 208.448 78.0455 208.901 78.0455 209.414V216.529H74.5574ZM87.2183 216.767C86.4159 216.767 85.7008 216.628 85.073 216.349C84.4453 216.065 83.9485 215.648 83.5828 215.096C83.2225 214.54 83.0424 213.846 83.0424 213.017C83.0424 212.318 83.1706 211.731 83.4272 211.256C83.6838 210.781 84.0331 210.399 84.4753 210.11C84.9174 209.82 85.4196 209.602 85.9819 209.455C86.5496 209.307 87.1446 209.204 87.7669 209.144C88.4984 209.067 89.0879 208.996 89.5356 208.931C89.9832 208.86 90.308 208.756 90.51 208.62C90.7119 208.483 90.8129 208.281 90.8129 208.014V207.964C90.8129 207.446 90.6492 207.045 90.3216 206.761C89.9996 206.477 89.541 206.335 88.946 206.335C88.3183 206.335 87.8188 206.474 87.4476 206.753C87.0764 207.026 86.8307 207.369 86.7106 207.784L83.4845 207.522C83.6483 206.758 83.9703 206.098 84.4507 205.541C84.9311 204.979 85.5507 204.547 86.3094 204.247C87.0737 203.941 87.958 203.789 88.9624 203.789C89.6611 203.789 90.3298 203.87 90.9685 204.034C91.6126 204.198 92.1831 204.452 92.6798 204.796C93.182 205.14 93.5778 205.582 93.8671 206.122C94.1564 206.657 94.3011 207.299 94.3011 208.046V216.529H90.9931V214.785H90.8948C90.6928 215.178 90.4226 215.525 90.0842 215.825C89.7457 216.12 89.339 216.352 88.8641 216.521C88.3892 216.685 87.8406 216.767 87.2183 216.767ZM88.2173 214.359C88.7304 214.359 89.1835 214.258 89.5765 214.056C89.9695 213.849 90.278 213.571 90.5018 213.221C90.7256 212.872 90.8375 212.476 90.8375 212.034V210.699C90.7283 210.77 90.5782 210.836 90.3871 210.896C90.2015 210.95 89.9914 211.002 89.7566 211.051C89.5219 211.095 89.2872 211.136 89.0525 211.174C88.8177 211.207 88.6048 211.237 88.4138 211.264C88.0044 211.324 87.6468 211.42 87.3411 211.551C87.0354 211.682 86.798 211.859 86.6288 212.083C86.4595 212.301 86.3749 212.574 86.3749 212.902C86.3749 213.377 86.5469 213.74 86.8908 213.991C87.2401 214.237 87.6823 214.359 88.2173 214.359ZM102.69 216.775C101.402 216.775 100.293 216.502 99.3654 215.956C98.4429 215.405 97.7333 214.641 97.2365 213.663C96.7452 212.686 96.4996 211.562 96.4996 210.29C96.4996 209.002 96.748 207.872 97.2447 206.9C97.7469 205.923 98.4593 205.161 99.3818 204.616C100.304 204.064 101.402 203.789 102.673 203.789C103.771 203.789 104.731 203.988 105.556 204.386C106.38 204.785 107.032 205.344 107.513 206.065C107.993 206.785 108.258 207.631 108.307 208.603H105.015C104.922 207.975 104.677 207.47 104.278 207.088C103.885 206.701 103.369 206.507 102.731 206.507C102.19 206.507 101.718 206.654 101.314 206.949C100.916 207.238 100.605 207.662 100.381 208.218C100.157 208.775 100.045 209.449 100.045 210.241C100.045 211.043 100.154 211.726 100.373 212.288C100.596 212.85 100.91 213.279 101.314 213.573C101.718 213.868 102.19 214.016 102.731 214.016C103.129 214.016 103.487 213.934 103.803 213.77C104.125 213.606 104.39 213.369 104.598 213.058C104.811 212.741 104.95 212.362 105.015 211.919H108.307C108.252 212.88 107.99 213.726 107.521 214.458C107.057 215.184 106.415 215.751 105.597 216.161C104.778 216.57 103.809 216.775 102.69 216.775ZM116.223 216.775C114.951 216.775 113.851 216.505 112.923 215.964C112 215.418 111.288 214.66 110.786 213.688C110.284 212.711 110.033 211.578 110.033 210.29C110.033 208.991 110.284 207.855 110.786 206.884C111.288 205.907 112 205.148 112.923 204.607C113.851 204.061 114.951 203.789 116.223 203.789C117.495 203.789 118.592 204.061 119.514 204.607C120.442 205.148 121.158 205.907 121.66 206.884C122.162 207.855 122.413 208.991 122.413 210.29C122.413 211.578 122.162 212.711 121.66 213.688C121.158 214.66 120.442 215.418 119.514 215.964C118.592 216.505 117.495 216.775 116.223 216.775ZM116.239 214.073C116.818 214.073 117.301 213.909 117.688 213.582C118.076 213.249 118.368 212.795 118.565 212.222C118.767 211.649 118.868 210.997 118.868 210.265C118.868 209.534 118.767 208.882 118.565 208.308C118.368 207.735 118.076 207.282 117.688 206.949C117.301 206.616 116.818 206.45 116.239 206.45C115.655 206.45 115.164 206.616 114.765 206.949C114.372 207.282 114.075 207.735 113.873 208.308C113.676 208.882 113.578 209.534 113.578 210.265C113.578 210.997 113.676 211.649 113.873 212.222C114.075 212.795 114.372 213.249 114.765 213.582C115.164 213.909 115.655 214.073 116.239 214.073ZM131.371 203.952V206.572H123.797V203.952H131.371ZM125.516 200.939H129.005V212.664C129.005 212.987 129.054 213.238 129.152 213.418C129.25 213.592 129.387 213.715 129.561 213.786C129.741 213.857 129.949 213.893 130.184 213.893C130.347 213.893 130.511 213.879 130.675 213.852C130.839 213.819 130.964 213.794 131.052 213.778L131.6 216.374C131.425 216.428 131.18 216.491 130.863 216.562C130.547 216.638 130.162 216.685 129.709 216.701C128.868 216.734 128.131 216.622 127.498 216.366C126.87 216.109 126.382 215.71 126.032 215.17C125.683 214.63 125.511 213.947 125.516 213.123V200.939ZM140.333 203.952V206.572H132.759V203.952H140.333ZM134.478 200.939H137.966V212.664C137.966 212.987 138.016 213.238 138.114 213.418C138.212 213.592 138.349 213.715 138.523 213.786C138.703 213.857 138.911 213.893 139.146 213.893C139.309 213.893 139.473 213.879 139.637 213.852C139.801 213.819 139.926 213.794 140.014 213.778L140.562 216.374C140.387 216.428 140.142 216.491 139.825 216.562C139.509 216.638 139.124 216.685 138.671 216.701C137.83 216.734 137.093 216.622 136.46 216.366C135.832 216.109 135.344 215.71 134.994 215.17C134.645 214.63 134.473 213.947 134.478 213.123V200.939ZM146.191 216.767C145.389 216.767 144.674 216.628 144.046 216.349C143.418 216.065 142.922 215.648 142.556 215.096C142.196 214.54 142.016 213.846 142.016 213.017C142.016 212.318 142.144 211.731 142.4 211.256C142.657 210.781 143.006 210.399 143.448 210.11C143.891 209.82 144.393 209.602 144.955 209.455C145.523 209.307 146.118 209.204 146.74 209.144C147.472 209.067 148.061 208.996 148.509 208.931C148.956 208.86 149.281 208.756 149.483 208.62C149.685 208.483 149.786 208.281 149.786 208.014V207.964C149.786 207.446 149.622 207.045 149.295 206.761C148.973 206.477 148.514 206.335 147.919 206.335C147.291 206.335 146.792 206.474 146.421 206.753C146.05 207.026 145.804 207.369 145.684 207.784L142.458 207.522C142.621 206.758 142.944 206.098 143.424 205.541C143.904 204.979 144.524 204.547 145.283 204.247C146.047 203.941 146.931 203.789 147.936 203.789C148.634 203.789 149.303 203.87 149.942 204.034C150.586 204.198 151.156 204.452 151.653 204.796C152.155 205.14 152.551 205.582 152.84 206.122C153.13 206.657 153.274 207.299 153.274 208.046V216.529H149.966V214.785H149.868C149.666 215.178 149.396 215.525 149.057 215.825C148.719 216.12 148.312 216.352 147.837 216.521C147.362 216.685 146.814 216.767 146.191 216.767ZM147.19 214.359C147.704 214.359 148.157 214.258 148.55 214.056C148.943 213.849 149.251 213.571 149.475 213.221C149.699 212.872 149.811 212.476 149.811 212.034V210.699C149.701 210.77 149.551 210.836 149.36 210.896C149.175 210.95 148.965 211.002 148.73 211.051C148.495 211.095 148.26 211.136 148.026 211.174C147.791 211.207 147.578 211.237 147.387 211.264C146.978 211.324 146.62 211.42 146.314 211.551C146.009 211.682 145.771 211.859 145.602 212.083C145.433 212.301 145.348 212.574 145.348 212.902C145.348 213.377 145.52 213.74 145.864 213.991C146.213 214.237 146.655 214.359 147.19 214.359Z" fill="white"/>
<path d="M43.366 193.823L45.8115 178.917H47.2672L44.8217 193.823H43.366ZM36.5826 189.689L36.8155 188.233H47.9368L47.7039 189.689H36.5826ZM38.1256 193.823L40.5711 178.917H42.0268L39.5812 193.823H38.1256ZM37.456 184.507L37.6889 183.051H48.8102L48.5773 184.507H37.456ZM50.9682 193.823V178.917H59.9643V180.518H52.7733V185.555H59.4985V187.156H52.7733V192.222H60.0808V193.823H50.9682ZM63.2177 193.823V178.917H72.1556V180.518H65.0228V185.555H71.4859V187.156H65.0228V193.823H63.2177ZM74.6357 190.766V189.282L81.1862 178.917H82.2634V181.217H81.5355L76.5863 189.049V189.165H85.4076V190.766H74.6357ZM81.652 193.823V190.315V189.624V178.917H83.3697V193.823H81.652ZM93.0845 194.027C92.4731 194.017 91.8617 193.901 91.2503 193.678C90.639 193.454 90.081 193.078 89.5763 192.55C89.0717 192.016 88.6665 191.295 88.3608 190.388C88.0551 189.476 87.9023 188.331 87.9023 186.952C87.9023 185.633 88.026 184.463 88.2735 183.444C88.521 182.42 88.88 181.559 89.3507 180.86C89.8214 180.157 90.3891 179.623 91.0538 179.259C91.7234 178.895 92.478 178.713 93.3174 178.713C94.152 178.713 94.8944 178.881 95.5446 179.216C96.1996 179.546 96.7334 180.006 97.1458 180.598C97.5583 181.19 97.8251 181.872 97.9464 182.644H96.1705C96.0055 181.974 95.6853 181.418 95.2098 180.977C94.7343 180.535 94.1035 180.315 93.3174 180.315C92.1626 180.315 91.2528 180.817 90.588 181.821C89.9281 182.826 89.5957 184.235 89.5909 186.05H89.7073C89.9791 185.638 90.3017 185.286 90.6754 184.995C91.0538 184.699 91.4711 184.471 91.9272 184.31C92.3833 184.15 92.8661 184.07 93.3756 184.07C94.2296 184.07 95.0108 184.284 95.7193 184.711C96.4277 185.133 96.9954 185.718 97.4224 186.465C97.8494 187.207 98.0629 188.059 98.0629 189.02C98.0629 189.941 97.8567 190.786 97.4442 191.552C97.0318 192.314 96.4519 192.921 95.7047 193.372C94.9623 193.818 94.0889 194.037 93.0845 194.027ZM93.0845 192.426C93.6959 192.426 94.2442 192.273 94.7294 191.967C95.2195 191.662 95.6052 191.252 95.8867 190.737C96.1729 190.223 96.3161 189.65 96.3161 189.02C96.3161 188.403 96.1778 187.843 95.9012 187.338C95.6295 186.829 95.2534 186.424 94.7731 186.123C94.2975 185.822 93.7541 185.671 93.1427 185.671C92.6818 185.671 92.2523 185.764 91.8544 185.948C91.4566 186.128 91.1072 186.375 90.8064 186.69C90.5104 187.006 90.2775 187.367 90.1076 187.775C89.9378 188.178 89.8529 188.602 89.8529 189.049C89.8529 189.641 89.9912 190.194 90.2678 190.708C90.5492 191.222 90.9325 191.637 91.4177 191.953C91.9078 192.268 92.4634 192.426 93.0845 192.426ZM100.925 193.823V192.513L105.845 187.127C106.423 186.496 106.898 185.948 107.272 185.482C107.645 185.012 107.922 184.57 108.102 184.158C108.286 183.74 108.378 183.304 108.378 182.847C108.378 182.323 108.252 181.87 108 181.486C107.752 181.103 107.413 180.807 106.981 180.598C106.549 180.39 106.064 180.285 105.525 180.285C104.952 180.285 104.453 180.404 104.026 180.642C103.604 180.875 103.276 181.203 103.043 181.625C102.815 182.047 102.701 182.542 102.701 183.109H100.983C100.983 182.236 101.185 181.469 101.587 180.81C101.99 180.15 102.538 179.635 103.232 179.267C103.931 178.898 104.715 178.713 105.583 178.713C106.457 178.713 107.231 178.898 107.905 179.267C108.58 179.635 109.108 180.133 109.492 180.759C109.875 181.385 110.067 182.081 110.067 182.847C110.067 183.396 109.967 183.932 109.768 184.456C109.574 184.975 109.235 185.555 108.749 186.196C108.269 186.831 107.602 187.608 106.748 188.525L103.4 192.106V192.222H110.329V193.823H100.925ZM113.597 193.823V178.917H122.593V180.518H115.402V185.555H122.127V187.156H115.402V192.222H122.709V193.823H113.597Z" fill="white"/>
<defs>
<filter id="filter0_d_9_547" x="9.53674e-07" y="0.000370741" width="253.744" height="253.744" filterUnits="userSpaceOnUse" color-interpolation-filters="sRGB">
<feFlood flood-opacity="0" result="BackgroundImageFix"/>
<feColorMatrix in="SourceAlpha" type="matrix" values="0 0 0 0 0 0 0 0 0 0 0 0 0 0 0 0 0 0 127 0" result="hardAlpha"/>
<feOffset dy="3.84298"/>
<feGaussianBlur stdDeviation="7.68595"/>
<feComposite in2="hardAlpha" operator="out"/>
<feColorMatrix type="matrix" values="0 0 0 0 0.082135 0 0 0 0 0.0758995 0 0 0 0 0.387678 0 0 0 0.06 0"/>
<feBlend mode="normal" in2="BackgroundImageFix" result="effect1_dropShadow_9_547"/>
<feBlend mode="normal" in="SourceGraphic" in2="effect1_dropShadow_9_547" result="shape"/>
</filter>
</defs>
</svg>
