<svg width="223" height="223" viewBox="0 0 223 223" fill="none" xmlns="http://www.w3.org/2000/svg">
<rect x="0.000213623" width="223" height="223" rx="25.6198" fill="#930632"/>
<path d="M22.4575 205V188.231H29.1718C30.4055 188.231 31.4344 188.414 32.2587 188.779C33.083 189.145 33.7026 189.653 34.1174 190.302C34.5323 190.946 34.7397 191.689 34.7397 192.529C34.7397 193.184 34.6087 193.76 34.3467 194.257C34.0847 194.748 33.7244 195.152 33.2659 195.469C32.8128 195.78 32.2942 196.001 31.7101 196.132V196.296C32.3488 196.323 32.9465 196.503 33.5033 196.836C34.0656 197.169 34.5214 197.636 34.8707 198.237C35.2201 198.832 35.3948 199.541 35.3948 200.366C35.3948 201.255 35.1737 202.05 34.7315 202.748C34.2948 203.442 33.648 203.99 32.7909 204.394C31.9339 204.798 30.8776 205 29.6221 205H22.4575ZM26.003 202.101H28.8934C29.8814 202.101 30.602 201.913 31.0551 201.536C31.5081 201.154 31.7347 200.647 31.7347 200.013C31.7347 199.549 31.6228 199.14 31.399 198.785C31.1752 198.43 30.8558 198.152 30.4409 197.95C30.0315 197.748 29.543 197.647 28.9753 197.647H26.003V202.101ZM26.003 195.248H28.6314C29.1172 195.248 29.5484 195.163 29.9251 194.994C30.3072 194.819 30.6074 194.574 30.8258 194.257C31.0496 193.941 31.1615 193.561 31.1615 193.119C31.1615 192.513 30.9459 192.024 30.5146 191.653C30.0889 191.282 29.4829 191.097 28.6969 191.097H26.003V195.248ZM45.7016 199.645V192.423H49.1898V205H45.8408V202.716H45.7098C45.426 203.452 44.9538 204.045 44.2933 204.492C43.6382 204.94 42.8385 205.164 41.8941 205.164C41.0535 205.164 40.3138 204.973 39.6751 204.591C39.0365 204.208 38.537 203.665 38.1767 202.961C37.8219 202.257 37.6417 201.414 37.6363 200.431V192.423H41.1244V199.809C41.1299 200.551 41.3291 201.138 41.7222 201.569C42.1152 202 42.642 202.216 43.3025 202.216C43.7228 202.216 44.1159 202.12 44.4816 201.929C44.8473 201.733 45.1421 201.444 45.3659 201.061C45.5952 200.679 45.7071 200.207 45.7016 199.645ZM51.9799 205V192.423H55.3616V194.617H55.4926C55.7219 193.837 56.1067 193.247 56.6471 192.849C57.1876 192.445 57.8099 192.243 58.514 192.243C58.6887 192.243 58.8771 192.254 59.079 192.276C59.281 192.297 59.4584 192.327 59.6113 192.366V195.461C59.4475 195.412 59.221 195.368 58.9316 195.33C58.6423 195.292 58.3776 195.272 58.1374 195.272C57.6243 195.272 57.1657 195.384 56.7618 195.608C56.3633 195.827 56.0467 196.132 55.812 196.525C55.5827 196.918 55.468 197.371 55.468 197.884V205H51.9799ZM66.4955 209.978C65.3655 209.978 64.3966 209.823 63.5887 209.512C62.7862 209.206 62.1475 208.788 61.6726 208.259C61.1977 207.729 60.8893 207.134 60.7474 206.474L63.9735 206.04C64.0718 206.291 64.2273 206.526 64.4402 206.744C64.6531 206.962 64.9342 207.137 65.2836 207.268C65.6384 207.405 66.0697 207.473 66.5773 207.473C67.3361 207.473 67.9611 207.287 68.4524 206.916C68.9492 206.55 69.1975 205.936 69.1975 205.074V202.773H69.0502C68.8973 203.122 68.668 203.452 68.3624 203.764C68.0567 204.075 67.6636 204.329 67.1833 204.525C66.7029 204.722 66.1297 204.82 65.4637 204.82C64.5194 204.82 63.6596 204.602 62.8845 204.165C62.1148 203.723 61.5007 203.048 61.0421 202.142C60.5891 201.231 60.3625 200.079 60.3625 198.687C60.3625 197.262 60.5945 196.072 61.0585 195.117C61.5225 194.162 62.1394 193.447 62.909 192.972C63.6842 192.497 64.533 192.259 65.4556 192.259C66.1597 192.259 66.7493 192.379 67.2242 192.62C67.6991 192.854 68.0812 193.149 68.3705 193.504C68.6653 193.853 68.8919 194.197 69.0502 194.536H69.1812V192.423H72.6448V205.123C72.6448 206.193 72.3827 207.088 71.8587 207.809C71.3347 208.529 70.6086 209.07 69.6806 209.43C68.7581 209.796 67.6964 209.978 66.4955 209.978ZM66.5691 202.2C67.1314 202.2 67.6063 202.06 67.9939 201.782C68.3869 201.498 68.6871 201.094 68.8946 200.57C69.1075 200.041 69.2139 199.407 69.2139 198.671C69.2139 197.934 69.1102 197.295 68.9028 196.755C68.6953 196.209 68.3951 195.786 68.0021 195.485C67.609 195.185 67.1314 195.035 66.5691 195.035C65.996 195.035 65.5129 195.191 65.1198 195.502C64.7268 195.807 64.4293 196.233 64.2273 196.779C64.0254 197.325 63.9244 197.955 63.9244 198.671C63.9244 199.397 64.0254 200.024 64.2273 200.554C64.4348 201.078 64.7323 201.485 65.1198 201.774C65.5129 202.058 65.996 202.2 66.5691 202.2ZM83.4859 199.645V192.423H86.974V205H83.6251V202.716H83.4941C83.2102 203.452 82.738 204.045 82.0775 204.492C81.4225 204.94 80.6228 205.164 79.6784 205.164C78.8377 205.164 78.0981 204.973 77.4594 204.591C76.8207 204.208 76.3212 203.665 75.961 202.961C75.6061 202.257 75.426 201.414 75.4205 200.431V192.423H78.9087V199.809C78.9142 200.551 79.1134 201.138 79.5064 201.569C79.8995 202 80.4262 202.216 81.0867 202.216C81.5071 202.216 81.9001 202.12 82.2658 201.929C82.6316 201.733 82.9264 201.444 83.1502 201.061C83.3794 200.679 83.4913 200.207 83.4859 199.645ZM93.2523 197.729V205H89.7641V192.423H93.0885V194.642H93.2359C93.5143 193.911 93.981 193.332 94.6361 192.906C95.2912 192.475 96.0854 192.259 97.0189 192.259C97.8923 192.259 98.6538 192.45 99.3034 192.832C99.9529 193.215 100.458 193.76 100.818 194.47C101.178 195.174 101.359 196.015 101.359 196.992V205H97.8704V197.614C97.8759 196.845 97.6794 196.244 97.2809 195.813C96.8824 195.376 96.3338 195.158 95.6351 195.158C95.1656 195.158 94.7507 195.259 94.3905 195.461C94.0356 195.663 93.7572 195.958 93.5553 196.345C93.3587 196.727 93.2578 197.188 93.2523 197.729ZM108.742 205.205C107.787 205.205 106.922 204.959 106.147 204.468C105.377 203.971 104.766 203.242 104.312 202.282C103.865 201.315 103.641 200.131 103.641 198.728C103.641 197.287 103.873 196.089 104.337 195.133C104.801 194.173 105.418 193.455 106.188 192.98C106.963 192.499 107.812 192.259 108.734 192.259C109.438 192.259 110.025 192.379 110.495 192.62C110.969 192.854 111.352 193.149 111.641 193.504C111.936 193.853 112.159 194.197 112.312 194.536H112.419V188.231H115.899V205H112.46V202.986H112.312C112.149 203.335 111.917 203.682 111.616 204.026C111.322 204.364 110.937 204.645 110.462 204.869C109.992 205.093 109.419 205.205 108.742 205.205ZM109.848 202.429C110.41 202.429 110.885 202.276 111.272 201.97C111.665 201.659 111.966 201.225 112.173 200.668C112.386 200.112 112.492 199.459 112.492 198.711C112.492 197.964 112.389 197.314 112.181 196.763C111.974 196.211 111.674 195.786 111.281 195.485C110.888 195.185 110.41 195.035 109.848 195.035C109.274 195.035 108.791 195.191 108.398 195.502C108.005 195.813 107.708 196.244 107.506 196.795C107.304 197.347 107.203 197.985 107.203 198.711C107.203 199.443 107.304 200.09 107.506 200.652C107.713 201.209 108.011 201.646 108.398 201.962C108.791 202.273 109.274 202.429 109.848 202.429ZM120.92 209.716C120.478 209.716 120.063 209.681 119.675 209.61C119.293 209.544 118.977 209.46 118.726 209.356L119.512 206.752C119.921 206.878 120.29 206.946 120.617 206.957C120.95 206.968 121.237 206.891 121.477 206.728C121.723 206.564 121.922 206.286 122.075 205.893L122.279 205.36L117.768 192.423H121.436L124.04 201.659H124.171L126.799 192.423H130.492L125.604 206.359C125.369 207.036 125.05 207.626 124.646 208.128C124.247 208.636 123.742 209.026 123.131 209.299C122.52 209.577 121.783 209.716 120.92 209.716Z" fill="white"/>
<path d="M28.1328 182L30.5783 167.094H32.034L29.5885 182H28.1328ZM21.3494 177.866L21.5823 176.41H32.7036L32.4707 177.866H21.3494ZM22.8924 182L25.3379 167.094H26.7936L24.348 182H22.8924ZM22.2228 172.684L22.4557 171.228H33.577L33.3441 172.684H22.2228ZM40.2185 166.89C40.8299 166.895 41.4413 167.011 42.0527 167.239C42.664 167.468 43.2221 167.846 43.7267 168.375C44.2313 168.899 44.6365 169.615 44.9422 170.522C45.2479 171.429 45.4007 172.567 45.4007 173.936C45.4007 175.26 45.2746 176.437 45.0222 177.466C44.7748 178.489 44.4157 179.353 43.945 180.057C43.4792 180.76 42.9115 181.294 42.2419 181.658C41.5771 182.022 40.825 182.204 39.9856 182.204C39.151 182.204 38.4062 182.039 37.7512 181.709C37.101 181.374 36.5672 180.911 36.1499 180.319C35.7375 179.722 35.473 179.03 35.3566 178.244H37.1325C37.2926 178.929 37.6104 179.494 38.086 179.94C38.5663 180.382 39.1995 180.603 39.9856 180.603C41.1356 180.603 42.043 180.1 42.7077 179.096C43.3773 178.092 43.7121 176.672 43.7121 174.838H43.5957C43.324 175.246 43.0013 175.597 42.6277 175.893C42.254 176.189 41.8392 176.417 41.3831 176.578C40.9269 176.738 40.4417 176.818 39.9274 176.818C39.0734 176.818 38.2898 176.607 37.5765 176.185C36.868 175.758 36.3003 175.173 35.8733 174.431C35.4512 173.683 35.2401 172.829 35.2401 171.869C35.2401 170.956 35.4439 170.122 35.8515 169.365C36.2639 168.603 36.8414 167.996 37.5837 167.545C38.331 167.094 39.2092 166.876 40.2185 166.89ZM40.2185 168.491C39.6071 168.491 39.0564 168.644 38.5663 168.95C38.0811 169.251 37.6954 169.658 37.4091 170.173C37.1276 170.682 36.9869 171.247 36.9869 171.869C36.9869 172.49 37.1228 173.055 37.3945 173.564C37.6711 174.069 38.0471 174.472 38.5227 174.773C39.003 175.069 39.5489 175.217 40.1603 175.217C40.6213 175.217 41.0507 175.127 41.4486 174.947C41.8464 174.763 42.1934 174.513 42.4894 174.198C42.7902 173.877 43.0255 173.516 43.1954 173.113C43.3652 172.706 43.4501 172.281 43.4501 171.839C43.4501 171.257 43.3094 170.711 43.028 170.202C42.7514 169.692 42.3681 169.28 41.878 168.964C41.3928 168.649 40.8396 168.491 40.2185 168.491ZM53.2996 182.204C52.3388 182.204 51.4824 182.039 50.7303 181.709C49.983 181.379 49.3886 180.92 48.9471 180.333C48.5104 179.741 48.2726 179.055 48.2338 178.273H50.068C50.1068 178.754 50.2718 179.169 50.5629 179.518C50.854 179.863 51.2349 180.129 51.7056 180.319C52.1763 180.508 52.6979 180.603 53.2704 180.603C53.9109 180.603 54.4786 180.491 54.9736 180.268C55.4685 180.045 55.8567 179.734 56.1381 179.336C56.4195 178.938 56.5603 178.477 56.5603 177.953C56.5603 177.405 56.4244 176.922 56.1527 176.505C55.8809 176.083 55.4831 175.753 54.959 175.515C54.435 175.277 53.7945 175.158 53.0375 175.158H51.8439V173.557H53.0375C53.6295 173.557 54.1487 173.45 54.5951 173.237C55.0464 173.023 55.3981 172.723 55.6505 172.334C55.9076 171.946 56.0362 171.49 56.0362 170.966C56.0362 170.461 55.9246 170.022 55.7014 169.649C55.4782 169.275 55.1628 168.984 54.7552 168.775C54.3525 168.567 53.877 168.462 53.3287 168.462C52.8143 168.462 52.3291 168.557 51.873 168.746C51.4217 168.93 51.053 169.2 50.7667 169.554C50.4804 169.903 50.3251 170.326 50.3009 170.82H48.5541C48.5832 170.039 48.8185 169.355 49.2601 168.768C49.7016 168.176 50.279 167.715 50.9923 167.385C51.7104 167.055 52.4989 166.89 53.3578 166.89C54.2797 166.89 55.0706 167.077 55.7305 167.451C56.3904 167.819 56.8975 168.307 57.2517 168.914C57.6059 169.52 57.783 170.175 57.783 170.879C57.783 171.718 57.5622 172.434 57.1207 173.026C56.684 173.618 56.0896 174.028 55.3375 174.256V174.372C56.2788 174.528 57.0139 174.928 57.5428 175.573C58.0717 176.214 58.3362 177.007 58.3362 177.953C58.3362 178.764 58.1154 179.491 57.6738 180.137C57.2371 180.777 56.6403 181.282 55.8834 181.651C55.1264 182.019 54.2651 182.204 53.2996 182.204ZM66.175 182.204C65.0784 182.204 64.1443 181.905 63.3728 181.309C62.6013 180.707 62.0118 179.836 61.6042 178.696C61.1966 177.55 60.9928 176.168 60.9928 174.547C60.9928 172.936 61.1966 171.56 61.6042 170.42C62.0166 169.275 62.6086 168.402 63.3801 167.8C64.1564 167.193 65.0881 166.89 66.175 166.89C67.2619 166.89 68.1911 167.193 68.9626 167.8C69.739 168.402 70.3309 169.275 70.7385 170.42C71.151 171.56 71.3572 172.936 71.3572 174.547C71.3572 176.168 71.1534 177.55 70.7458 178.696C70.3382 179.836 69.7487 180.707 68.9771 181.309C68.2056 181.905 67.2716 182.204 66.175 182.204ZM66.175 180.603C67.2619 180.603 68.1062 180.079 68.7078 179.03C69.3095 177.982 69.6104 176.488 69.6104 174.547C69.6104 173.256 69.4721 172.157 69.1955 171.25C68.9238 170.342 68.5307 169.651 68.0164 169.176C67.5069 168.7 66.8931 168.462 66.175 168.462C65.0978 168.462 64.2559 168.994 63.6494 170.056C63.0429 171.114 62.7396 172.611 62.7396 174.547C62.7396 175.838 62.8755 176.934 63.1472 177.837C63.4189 178.739 63.8095 179.426 64.319 179.897C64.8333 180.367 65.452 180.603 66.175 180.603ZM79.0722 182.204C78.4609 182.194 77.8495 182.078 77.2381 181.854C76.6267 181.631 76.0687 181.255 75.5641 180.726C75.0594 180.193 74.6543 179.472 74.3486 178.565C74.0429 177.652 73.89 176.507 73.89 175.129C73.89 173.809 74.0138 172.64 74.2612 171.621C74.5087 170.597 74.8678 169.736 75.3384 169.037C75.8091 168.334 76.3768 167.8 77.0416 167.436C77.7112 167.072 78.4657 166.89 79.3051 166.89C80.1397 166.89 80.8821 167.058 81.5323 167.392C82.1874 167.722 82.7211 168.183 83.1336 168.775C83.546 169.367 83.8129 170.049 83.9342 170.82H82.1583C81.9933 170.151 81.673 169.595 81.1975 169.154C80.722 168.712 80.0912 168.491 79.3051 168.491C78.1503 168.491 77.2405 168.994 76.5758 169.998C75.9158 171.002 75.5835 172.412 75.5786 174.227H75.6951C75.9668 173.814 76.2895 173.462 76.6631 173.171C77.0416 172.875 77.4589 172.647 77.915 172.487C78.3711 172.327 78.8539 172.247 79.3634 172.247C80.2174 172.247 80.9986 172.46 81.707 172.887C82.4154 173.31 82.9831 173.894 83.4101 174.642C83.8371 175.384 84.0506 176.236 84.0506 177.196C84.0506 178.118 83.8444 178.962 83.432 179.729C83.0195 180.491 82.4397 181.097 81.6924 181.549C80.9501 181.995 80.0766 182.213 79.0722 182.204ZM79.0722 180.603C79.6836 180.603 80.2319 180.45 80.7171 180.144C81.2072 179.838 81.593 179.428 81.8744 178.914C82.1607 178.4 82.3038 177.827 82.3038 177.196C82.3038 176.58 82.1655 176.02 81.889 175.515C81.6172 175.005 81.2412 174.6 80.7608 174.299C80.2853 173.999 79.7418 173.848 79.1305 173.848C78.6695 173.848 78.2401 173.94 77.8422 174.125C77.4443 174.304 77.0949 174.552 76.7941 174.867C76.4981 175.183 76.2652 175.544 76.0954 175.952C75.9256 176.354 75.8406 176.779 75.8406 177.225C75.8406 177.817 75.9789 178.371 76.2555 178.885C76.5369 179.399 76.9203 179.814 77.4055 180.129C77.8956 180.445 78.4511 180.603 79.0722 180.603ZM91.9495 182.204C90.9887 182.204 90.1323 182.039 89.3802 181.709C88.633 181.379 88.0386 180.92 87.597 180.333C87.1603 179.741 86.9226 179.055 86.8837 178.273H88.7179C88.7567 178.754 88.9217 179.169 89.2128 179.518C89.5039 179.863 89.8848 180.129 90.3555 180.319C90.8262 180.508 91.3478 180.603 91.9204 180.603C92.5609 180.603 93.1286 180.491 93.6235 180.268C94.1184 180.045 94.5066 179.734 94.788 179.336C95.0695 178.938 95.2102 178.477 95.2102 177.953C95.2102 177.405 95.0743 176.922 94.8026 176.505C94.5309 176.083 94.133 175.753 93.6089 175.515C93.0849 175.277 92.4444 175.158 91.6875 175.158H90.4938V173.557H91.6875C92.2794 173.557 92.7986 173.45 93.245 173.237C93.6963 173.023 94.0481 172.723 94.3004 172.334C94.5576 171.946 94.6861 171.49 94.6861 170.966C94.6861 170.461 94.5745 170.022 94.3513 169.649C94.1281 169.275 93.8127 168.984 93.4051 168.775C93.0024 168.567 92.5269 168.462 91.9786 168.462C91.4643 168.462 90.979 168.557 90.5229 168.746C90.0717 168.93 89.7029 169.2 89.4166 169.554C89.1303 169.903 88.9751 170.326 88.9508 170.82H87.204C87.2331 170.039 87.4684 169.355 87.91 168.768C88.3515 168.176 88.929 167.715 89.6422 167.385C90.3604 167.055 91.1489 166.89 92.0077 166.89C92.9296 166.89 93.7205 167.077 94.3804 167.451C95.0404 167.819 95.5474 168.307 95.9016 168.914C96.2558 169.52 96.4329 170.175 96.4329 170.879C96.4329 171.718 96.2122 172.434 95.7706 173.026C95.3339 173.618 94.7395 174.028 93.9874 174.256V174.372C94.9288 174.528 95.6639 174.928 96.1928 175.573C96.7217 176.214 96.9861 177.007 96.9861 177.953C96.9861 178.764 96.7653 179.491 96.3238 180.137C95.8871 180.777 95.2902 181.282 94.5333 181.651C93.7763 182.019 92.9151 182.204 91.9495 182.204ZM99.963 182V180.69L104.883 175.304C105.461 174.673 105.936 174.125 106.31 173.659C106.683 173.188 106.96 172.747 107.139 172.334C107.324 171.917 107.416 171.48 107.416 171.024C107.416 170.5 107.29 170.047 107.038 169.663C106.79 169.28 106.45 168.984 106.019 168.775C105.587 168.567 105.101 168.462 104.563 168.462C103.99 168.462 103.491 168.581 103.064 168.819C102.641 169.052 102.314 169.379 102.081 169.801C101.853 170.224 101.739 170.719 101.739 171.286H100.021C100.021 170.413 100.223 169.646 100.625 168.986C101.028 168.326 101.576 167.812 102.27 167.443C102.969 167.075 103.753 166.89 104.621 166.89C105.495 166.89 106.268 167.075 106.943 167.443C107.617 167.812 108.146 168.309 108.53 168.935C108.913 169.561 109.105 170.258 109.105 171.024C109.105 171.573 109.005 172.109 108.806 172.633C108.612 173.152 108.272 173.732 107.787 174.372C107.307 175.008 106.64 175.784 105.786 176.701L102.438 180.282V180.399H109.367V182H99.963Z" fill="white"/>
</svg>
