<svg width="254" height="254" viewBox="0 0 254 254" fill="none" xmlns="http://www.w3.org/2000/svg">
<g filter="url(#filter0_d_9_555)">
<rect x="15.3719" y="11.5293" width="223" height="223" rx="25.6198" fill="#843E40"/>
</g>
<path d="M38.0237 216.141V199.371H44.7379C45.9716 199.371 47.0006 199.554 47.8249 199.92C48.6492 200.286 49.2687 200.793 49.6836 201.443C50.0985 202.087 50.3059 202.829 50.3059 203.67C50.3059 204.325 50.1749 204.901 49.9129 205.398C49.6508 205.889 49.2906 206.293 48.832 206.61C48.3789 206.921 47.8604 207.142 47.2763 207.273V207.437C47.9149 207.464 48.5127 207.644 49.0695 207.977C49.6317 208.31 50.0875 208.777 50.4369 209.377C50.7863 209.972 50.9609 210.682 50.9609 211.506C50.9609 212.396 50.7399 213.19 50.2977 213.889C49.861 214.582 49.2141 215.131 48.3571 215.535C47.5001 215.939 46.4438 216.141 45.1883 216.141H38.0237ZM41.5691 213.242H44.4595C45.4476 213.242 46.1681 213.054 46.6212 212.677C47.0743 212.295 47.3008 211.787 47.3008 211.154C47.3008 210.69 47.1889 210.281 46.9651 209.926C46.7413 209.571 46.422 209.293 46.0071 209.091C45.5977 208.889 45.1091 208.788 44.5414 208.788H41.5691V213.242ZM41.5691 206.389H44.1975C44.6834 206.389 45.1146 206.304 45.4913 206.135C45.8734 205.96 46.1736 205.714 46.392 205.398C46.6158 205.081 46.7277 204.702 46.7277 204.26C46.7277 203.654 46.512 203.165 46.0808 202.794C45.655 202.423 45.0491 202.237 44.263 202.237H41.5691V206.389ZM53.2025 216.141V203.564H56.5842V205.758H56.7152C56.9444 204.977 57.3293 204.388 57.8697 203.989C58.4101 203.585 59.0324 203.383 59.7366 203.383C59.9113 203.383 60.0996 203.394 60.3016 203.416C60.5036 203.438 60.681 203.468 60.8338 203.506V206.601C60.6701 206.552 60.4435 206.509 60.1542 206.47C59.8649 206.432 59.6001 206.413 59.3599 206.413C58.8468 206.413 58.3883 206.525 57.9843 206.749C57.5858 206.967 57.2692 207.273 57.0345 207.666C56.8052 208.059 56.6906 208.512 56.6906 209.025V216.141H53.2025ZM62.6373 216.141V203.564H66.1254V216.141H62.6373ZM64.3895 201.942C63.8709 201.942 63.426 201.77 63.0549 201.427C62.6891 201.077 62.5062 200.66 62.5062 200.174C62.5062 199.693 62.6891 199.281 63.0549 198.937C63.426 198.588 63.8709 198.413 64.3895 198.413C64.9081 198.413 65.3503 198.588 65.716 198.937C66.0872 199.281 66.2728 199.693 66.2728 200.174C66.2728 200.66 66.0872 201.077 65.716 201.427C65.3503 201.77 64.9081 201.942 64.3895 201.942ZM74.6022 216.386C73.3139 216.386 72.2058 216.113 71.2778 215.567C70.3553 215.016 69.6456 214.252 69.1489 213.275C68.6576 212.298 68.412 211.173 68.412 209.901C68.412 208.613 68.6603 207.483 69.1571 206.511C69.6593 205.534 70.3717 204.773 71.2942 204.227C72.2167 203.676 73.3139 203.4 74.5858 203.4C75.683 203.4 76.6438 203.599 77.4681 203.998C78.2923 204.396 78.9447 204.956 79.425 205.676C79.9054 206.397 80.1701 207.243 80.2193 208.214H76.9276C76.8348 207.587 76.5892 207.082 76.1907 206.7C75.7977 206.312 75.2818 206.118 74.6431 206.118C74.1027 206.118 73.6305 206.266 73.2266 206.56C72.8281 206.85 72.517 207.273 72.2931 207.83C72.0693 208.386 71.9574 209.061 71.9574 209.852C71.9574 210.655 72.0666 211.337 72.285 211.899C72.5088 212.461 72.8226 212.89 73.2266 213.185C73.6305 213.479 74.1027 213.627 74.6431 213.627C75.0416 213.627 75.3992 213.545 75.7158 213.381C76.0379 213.217 76.3026 212.98 76.51 212.669C76.7229 212.352 76.8621 211.973 76.9276 211.531H80.2193C80.1647 212.491 79.9027 213.338 79.4332 214.069C78.9692 214.795 78.3278 215.363 77.509 215.772C76.6902 216.182 75.7213 216.386 74.6022 216.386ZM85.6132 212.521L85.6214 208.337H86.1291L90.1577 203.564H94.1617L88.7493 209.885H87.9223L85.6132 212.521ZM82.4526 216.141V199.371H85.9408V216.141H82.4526ZM90.3132 216.141L86.6122 210.663L88.9376 208.198L94.3991 216.141H90.3132Z" fill="white"/>
<path d="M43.3661 193.823L45.8116 178.917H47.2673L44.8217 193.823H43.3661ZM36.5826 189.689L36.8155 188.233H47.9369L47.704 189.689H36.5826ZM38.1257 193.823L40.5712 178.917H42.0269L39.5813 193.823H38.1257ZM37.456 184.507L37.6889 183.051H48.8103L48.5774 184.507H37.456ZM55.4809 194.027C54.4813 194.027 53.5982 193.85 52.8316 193.496C52.0698 193.137 51.4754 192.644 51.0484 192.018C50.6214 191.387 50.4103 190.669 50.4152 189.864C50.4103 189.233 50.534 188.651 50.7864 188.117C51.0387 187.578 51.3832 187.13 51.8199 186.771C52.2614 186.407 52.7539 186.176 53.2974 186.079V185.992C52.5841 185.807 52.0164 185.407 51.5943 184.791C51.1721 184.17 50.9635 183.464 50.9683 182.673C50.9635 181.916 51.1551 181.239 51.5433 180.642C51.9315 180.045 52.4652 179.575 53.1446 179.23C53.8287 178.886 54.6075 178.713 55.4809 178.713C56.3446 178.713 57.1161 178.886 57.7954 179.23C58.4747 179.575 59.0085 180.045 59.3967 180.642C59.7897 181.239 59.9886 181.916 59.9935 182.673C59.9886 183.464 59.7727 184.17 59.3457 184.791C58.9236 185.407 58.3631 185.807 57.6644 185.992V186.079C58.203 186.176 58.6882 186.407 59.1201 186.771C59.5519 187.13 59.8964 187.578 60.1536 188.117C60.4108 188.651 60.5418 189.233 60.5466 189.864C60.5418 190.669 60.3234 191.387 59.8916 192.018C59.4646 192.644 58.8702 193.137 58.1084 193.496C57.3514 193.85 56.4756 194.027 55.4809 194.027ZM55.4809 192.426C56.1554 192.426 56.7376 192.317 57.2277 192.098C57.7178 191.88 58.0963 191.572 58.3631 191.174C58.63 190.776 58.7659 190.31 58.7707 189.776C58.7659 189.214 58.6203 188.716 58.334 188.284C58.0477 187.853 57.6571 187.513 57.1622 187.265C56.6721 187.018 56.1117 186.894 55.4809 186.894C54.8453 186.894 54.2775 187.018 53.7778 187.265C53.2828 187.513 52.8922 187.853 52.606 188.284C52.3245 188.716 52.1862 189.214 52.1911 189.776C52.1862 190.31 52.3148 190.776 52.5768 191.174C52.8437 191.572 53.2246 191.88 53.7195 192.098C54.2145 192.317 54.8016 192.426 55.4809 192.426ZM55.4809 185.351C56.0147 185.351 56.4877 185.244 56.9002 185.031C57.3175 184.817 57.645 184.519 57.8828 184.136C58.1205 183.752 58.2418 183.304 58.2467 182.789C58.2418 182.285 58.123 181.845 57.89 181.472C57.6571 181.093 57.3345 180.802 56.922 180.598C56.5096 180.39 56.0292 180.285 55.4809 180.285C54.9229 180.285 54.4352 180.39 54.018 180.598C53.6007 180.802 53.278 181.093 53.0499 181.472C52.8219 181.845 52.7103 182.285 52.7151 182.789C52.7103 183.304 52.8243 183.752 53.0572 184.136C53.295 184.519 53.6225 184.817 54.0398 185.031C54.4571 185.244 54.9375 185.351 55.4809 185.351ZM62.9867 190.766V189.282L69.5372 178.917H70.6144V181.217H69.8866L64.9373 189.049V189.165H73.7587V190.766H62.9867ZM70.0031 193.823V190.315V189.624V178.917H71.7208V193.823H70.0031ZM81.5229 194.027C80.5621 194.027 79.7057 193.862 78.9536 193.532C78.2064 193.202 77.612 192.744 77.1704 192.156C76.7337 191.565 76.496 190.878 76.4571 190.097H78.2913C78.3301 190.577 78.4951 190.992 78.7862 191.341C79.0774 191.686 79.4583 191.953 79.9289 192.142C80.3996 192.331 80.9212 192.426 81.4938 192.426C82.1343 192.426 82.702 192.314 83.1969 192.091C83.6918 191.868 84.08 191.557 84.3615 191.159C84.6429 190.761 84.7836 190.301 84.7836 189.776C84.7836 189.228 84.6477 188.745 84.376 188.328C84.1043 187.906 83.7064 187.576 83.1824 187.338C82.6583 187.1 82.0178 186.982 81.2609 186.982H80.0672V185.38H81.2609C81.8528 185.38 82.372 185.274 82.8184 185.06C83.2697 184.847 83.6215 184.546 83.8738 184.158C84.131 183.769 84.2596 183.313 84.2596 182.789C84.2596 182.285 84.148 181.845 83.9247 181.472C83.7015 181.098 83.3861 180.807 82.9786 180.598C82.5758 180.39 82.1003 180.285 81.552 180.285C81.0377 180.285 80.5524 180.38 80.0963 180.569C79.6451 180.754 79.2763 181.023 78.99 181.377C78.7037 181.727 78.5485 182.149 78.5242 182.644H76.7774C76.8065 181.862 77.0418 181.178 77.4834 180.591C77.925 179.999 78.5024 179.538 79.2156 179.208C79.9338 178.878 80.7223 178.713 81.5811 178.713C82.503 178.713 83.294 178.9 83.9539 179.274C84.6138 179.643 85.1208 180.13 85.475 180.737C85.8293 181.343 86.0064 181.998 86.0064 182.702C86.0064 183.541 85.7856 184.257 85.344 184.849C84.9073 185.441 84.3129 185.851 83.5608 186.079V186.196C84.5022 186.351 85.2373 186.751 85.7662 187.396C86.2951 188.037 86.5595 188.83 86.5595 189.776C86.5595 190.587 86.3387 191.315 85.8972 191.96C85.4605 192.6 84.8637 193.105 84.1067 193.474C83.3498 193.843 82.4885 194.027 81.5229 194.027ZM89.7984 193.823V178.917H98.7944V180.518H91.6034V185.555H98.3286V187.156H91.6034V192.222H98.9109V193.823H89.7984ZM101.436 190.766V189.282L107.987 178.917H109.064V181.217H108.336L103.387 189.049V189.165H112.208V190.766H101.436ZM108.453 193.823V190.315V189.624V178.917H110.171V193.823H108.453ZM119.798 194.027C118.701 194.027 117.767 193.729 116.996 193.132C116.224 192.53 115.635 191.659 115.227 190.519C114.82 189.374 114.616 187.991 114.616 186.37C114.616 184.759 114.82 183.384 115.227 182.243C115.64 181.098 116.232 180.225 117.003 179.623C117.779 179.017 118.711 178.713 119.798 178.713C120.885 178.713 121.814 179.017 122.586 179.623C123.362 180.225 123.954 181.098 124.362 182.243C124.774 183.384 124.98 184.759 124.98 186.37C124.98 187.991 124.776 189.374 124.369 190.519C123.961 191.659 123.372 192.53 122.6 193.132C121.829 193.729 120.895 194.027 119.798 194.027ZM119.798 192.426C120.885 192.426 121.729 191.902 122.331 190.854C122.933 189.806 123.233 188.311 123.233 186.37C123.233 185.08 123.095 183.98 122.819 183.073C122.547 182.166 122.154 181.474 121.639 180.999C121.13 180.523 120.516 180.285 119.798 180.285C118.721 180.285 117.879 180.817 117.272 181.879C116.666 182.937 116.363 184.434 116.363 186.37C116.363 187.661 116.498 188.758 116.77 189.66C117.042 190.563 117.433 191.249 117.942 191.72C118.456 192.19 119.075 192.426 119.798 192.426Z" fill="white"/>
<defs>
<filter id="filter0_d_9_555" x="4.673e-05" y="0.000370741" width="253.744" height="253.744" filterUnits="userSpaceOnUse" color-interpolation-filters="sRGB">
<feFlood flood-opacity="0" result="BackgroundImageFix"/>
<feColorMatrix in="SourceAlpha" type="matrix" values="0 0 0 0 0 0 0 0 0 0 0 0 0 0 0 0 0 0 127 0" result="hardAlpha"/>
<feOffset dy="3.84298"/>
<feGaussianBlur stdDeviation="7.68595"/>
<feComposite in2="hardAlpha" operator="out"/>
<feColorMatrix type="matrix" values="0 0 0 0 0.082135 0 0 0 0 0.0758995 0 0 0 0 0.387678 0 0 0 0.06 0"/>
<feBlend mode="normal" in2="BackgroundImageFix" result="effect1_dropShadow_9_555"/>
<feBlend mode="normal" in="SourceGraphic" in2="effect1_dropShadow_9_555" result="shape"/>
</filter>
</defs>
</svg>
