<svg width="223" height="223" viewBox="0 0 223 223" fill="none" xmlns="http://www.w3.org/2000/svg">
<rect width="223" height="223" rx="25.6198" fill="#F5F5F5"/>
<path d="M38.3547 196.615C38.3547 198.444 38.008 200 37.3148 201.283C36.627 202.565 35.6881 203.545 34.498 204.222C33.3135 204.894 31.9815 205.229 30.5022 205.229C29.012 205.229 27.6746 204.891 26.49 204.214C25.3055 203.537 24.3693 202.557 23.6815 201.274C22.9937 199.992 22.6498 198.439 22.6498 196.615C22.6498 194.787 22.9937 193.231 23.6815 191.948C24.3693 190.665 25.3055 189.688 26.49 189.017C27.6746 188.34 29.012 188.001 30.5022 188.001C31.9815 188.001 33.3135 188.34 34.498 189.017C35.6881 189.688 36.627 190.665 37.3148 191.948C38.008 193.231 38.3547 194.787 38.3547 196.615ZM34.7601 196.615C34.7601 195.431 34.5827 194.432 34.2278 193.618C33.8785 192.805 33.3845 192.188 32.7458 191.768C32.1071 191.348 31.3592 191.137 30.5022 191.137C29.6452 191.137 28.8973 191.348 28.2587 191.768C27.62 192.188 27.1232 192.805 26.7684 193.618C26.4191 194.432 26.2444 195.431 26.2444 196.615C26.2444 197.8 26.4191 198.799 26.7684 199.612C27.1232 200.426 27.62 201.042 28.2587 201.463C28.8973 201.883 29.6452 202.093 30.5022 202.093C31.3592 202.093 32.1071 201.883 32.7458 201.463C33.3845 201.042 33.8785 200.426 34.2278 199.612C34.5827 198.799 34.7601 197.8 34.7601 196.615ZM47.6789 192.423V195.043H39.9166V192.423H47.6789ZM41.6934 205V191.514C41.6934 190.602 41.8708 189.846 42.2256 189.246C42.5859 188.646 43.0772 188.195 43.6995 187.895C44.3218 187.595 45.0287 187.445 45.8202 187.445C46.3552 187.445 46.8437 187.486 47.2859 187.567C47.7335 187.649 48.0665 187.723 48.2849 187.788L47.6626 190.409C47.5261 190.365 47.3569 190.324 47.1549 190.286C46.9584 190.248 46.7564 190.229 46.549 190.229C46.0358 190.229 45.6783 190.349 45.4763 190.589C45.2743 190.824 45.1734 191.154 45.1734 191.58V205H41.6934ZM56.5733 192.423V195.043H48.8109V192.423H56.5733ZM50.5878 205V191.514C50.5878 190.602 50.7652 189.846 51.12 189.246C51.4803 188.646 51.9716 188.195 52.5939 187.895C53.2162 187.595 53.9231 187.445 54.7146 187.445C55.2496 187.445 55.7381 187.486 56.1803 187.567C56.6279 187.649 56.9609 187.723 57.1792 187.788L56.5569 190.409C56.4205 190.365 56.2512 190.324 56.0493 190.286C55.8528 190.248 55.6508 190.229 55.4434 190.229C54.9302 190.229 54.5727 190.349 54.3707 190.589C54.1687 190.824 54.0677 191.154 54.0677 191.58V205H50.5878ZM66.5219 205L63.0993 192.423H66.6284L68.5772 200.873H68.6918L70.7225 192.423H74.186L76.2495 200.824H76.3559L78.2719 192.423H81.7928L78.3784 205H74.6855L72.5238 197.09H72.3683L70.2066 205H66.5219ZM87.1418 197.729V205H83.6536V188.231H87.0435V194.642H87.1909C87.4747 193.9 87.9333 193.318 88.5665 192.898C89.1997 192.472 89.994 192.259 90.9492 192.259C91.8227 192.259 92.5841 192.45 93.2337 192.832C93.8888 193.209 94.3965 193.752 94.7567 194.462C95.1225 195.166 95.3026 196.009 95.2972 196.992V205H91.809V197.614C91.8145 196.839 91.6179 196.236 91.2195 195.805C90.8264 195.373 90.2751 195.158 89.5654 195.158C89.0905 195.158 88.6702 195.259 88.3045 195.461C87.9442 195.663 87.6603 195.958 87.4529 196.345C87.2509 196.727 87.1472 197.188 87.1418 197.729ZM98.0422 205V192.423H101.53V205H98.0422ZM99.7945 190.802C99.2759 190.802 98.831 190.63 98.4598 190.286C98.0941 189.937 97.9112 189.519 97.9112 189.033C97.9112 188.553 98.0941 188.141 98.4598 187.797C98.831 187.447 99.2759 187.273 99.7945 187.273C100.313 187.273 100.755 187.447 101.121 187.797C101.492 188.141 101.678 188.553 101.678 189.033C101.678 189.519 101.492 189.937 101.121 190.286C100.755 190.63 100.313 190.802 99.7945 190.802ZM111.014 192.423V195.043H103.44V192.423H111.014ZM105.16 189.41H108.648V201.135C108.648 201.457 108.697 201.708 108.795 201.888C108.894 202.063 109.03 202.186 109.205 202.257C109.385 202.328 109.592 202.363 109.827 202.363C109.991 202.363 110.155 202.35 110.318 202.322C110.482 202.29 110.608 202.265 110.695 202.249L111.244 204.844C111.069 204.899 110.823 204.962 110.507 205.033C110.19 205.109 109.805 205.156 109.352 205.172C108.511 205.205 107.775 205.093 107.141 204.836C106.514 204.58 106.025 204.181 105.676 203.641C105.326 203.1 105.154 202.418 105.16 201.594V189.41ZM118.883 205.246C117.589 205.246 116.476 204.984 115.542 204.46C114.614 203.93 113.899 203.182 113.397 202.216C112.895 201.244 112.644 200.095 112.644 198.769C112.644 197.475 112.895 196.34 113.397 195.363C113.899 194.385 114.606 193.624 115.518 193.078C116.435 192.532 117.51 192.259 118.744 192.259C119.574 192.259 120.346 192.393 121.061 192.66C121.782 192.922 122.41 193.318 122.944 193.848C123.485 194.377 123.905 195.043 124.205 195.846C124.506 196.643 124.656 197.576 124.656 198.646V199.604H114.036V197.442H121.372C121.372 196.94 121.263 196.495 121.045 196.108C120.826 195.72 120.524 195.417 120.136 195.199C119.754 194.975 119.309 194.863 118.801 194.863C118.272 194.863 117.802 194.986 117.393 195.232C116.989 195.472 116.672 195.797 116.443 196.206C116.214 196.61 116.096 197.06 116.091 197.557V199.612C116.091 200.234 116.206 200.772 116.435 201.225C116.67 201.678 117 202.028 117.426 202.273C117.851 202.519 118.356 202.642 118.94 202.642C119.328 202.642 119.683 202.587 120.005 202.478C120.327 202.369 120.603 202.205 120.832 201.987C121.061 201.768 121.236 201.501 121.356 201.184L124.582 201.397C124.418 202.172 124.083 202.849 123.575 203.428C123.073 204.001 122.423 204.449 121.626 204.771C120.835 205.087 119.92 205.246 118.883 205.246Z" fill="#565656"/>
<path d="M28.1326 182L30.5781 167.094H32.0338L29.5882 182H28.1326ZM21.3491 177.866L21.582 176.41H32.7034L32.4705 177.866H21.3491ZM22.8921 182L25.3377 167.094H26.7933L24.3478 182H22.8921ZM22.2225 172.684L22.4554 171.228H33.5768L33.3439 172.684H22.2225ZM35.7348 182V167.094H44.6726V168.695H37.5398V173.732H44.003V175.333H37.5398V182H35.7348ZM52.1602 182.204C51.3063 182.204 50.5372 182.034 49.853 181.694C49.1688 181.355 48.6205 180.889 48.2081 180.297C47.7957 179.705 47.57 179.03 47.5312 178.273H49.278C49.3459 178.948 49.6516 179.506 50.1951 179.948C50.7434 180.384 51.3984 180.603 52.1602 180.603C52.7716 180.603 53.3151 180.459 53.7906 180.173C54.271 179.887 54.647 179.494 54.9187 178.994C55.1953 178.489 55.3336 177.919 55.3336 177.284C55.3336 176.633 55.1905 176.054 54.9042 175.544C54.6228 175.03 54.2346 174.625 53.7396 174.329C53.2447 174.033 52.6794 173.882 52.0438 173.877C51.5877 173.872 51.1194 173.943 50.6391 174.088C50.1587 174.229 49.7632 174.411 49.4527 174.634L47.7641 174.431L48.6666 167.094H56.4108V168.695H50.1805L49.6565 173.091H49.7438C50.0495 172.849 50.4328 172.647 50.8938 172.487C51.3548 172.327 51.8351 172.247 52.3349 172.247C53.2471 172.247 54.0599 172.465 54.7732 172.902C55.4913 173.334 56.0542 173.926 56.4618 174.678C56.8742 175.43 57.0804 176.289 57.0804 177.255C57.0804 178.206 56.8669 179.055 56.4399 179.802C56.0178 180.544 55.4355 181.131 54.6931 181.563C53.9507 181.99 53.1064 182.204 52.1602 182.204ZM60.2338 182V167.094H69.1716V168.695H62.0388V173.732H68.502V175.333H62.0388V182H60.2338ZM76.6592 182.204C75.8052 182.204 75.0361 182.034 74.352 181.694C73.6678 181.355 73.1195 180.889 72.7071 180.297C72.2946 179.705 72.069 179.03 72.0302 178.273H73.777C73.8449 178.948 74.1506 179.506 74.6941 179.948C75.2424 180.384 75.8974 180.603 76.6592 180.603C77.2706 180.603 77.814 180.459 78.2896 180.173C78.7699 179.887 79.146 179.494 79.4177 178.994C79.6943 178.489 79.8326 177.919 79.8326 177.284C79.8326 176.633 79.6894 176.054 79.4032 175.544C79.1217 175.03 78.7335 174.625 78.2386 174.329C77.7437 174.033 77.1784 173.882 76.5428 173.877C76.0866 173.872 75.6184 173.943 75.138 174.088C74.6577 174.229 74.2622 174.411 73.9517 174.634L72.2631 174.431L73.1656 167.094H80.9098V168.695H74.6795L74.1555 173.091H74.2428C74.5485 172.849 74.9318 172.647 75.3928 172.487C75.8537 172.327 76.3341 172.247 76.8339 172.247C77.7461 172.247 78.5589 172.465 79.2721 172.902C79.9903 173.334 80.5531 173.926 80.9607 174.678C81.3732 175.43 81.5794 176.289 81.5794 177.255C81.5794 178.206 81.3659 179.055 80.9389 179.802C80.5167 180.544 79.9345 181.131 79.1921 181.563C78.4497 181.99 77.6054 182.204 76.6592 182.204ZM84.7327 182V167.094H93.6706V168.695H86.5378V173.732H93.001V175.333H86.5378V182H84.7327ZM101.158 182.204C100.304 182.204 99.5351 182.034 98.8509 181.694C98.1668 181.355 97.6185 180.889 97.206 180.297C96.7936 179.705 96.568 179.03 96.5291 178.273H98.2759C98.3439 178.948 98.6496 179.506 99.193 179.948C99.7413 180.384 100.396 180.603 101.158 180.603C101.77 180.603 102.313 180.459 102.789 180.173C103.269 179.887 103.645 179.494 103.917 178.994C104.193 178.489 104.332 177.919 104.332 177.284C104.332 176.633 104.188 176.054 103.902 175.544C103.621 175.03 103.233 174.625 102.738 174.329C102.243 174.033 101.677 173.882 101.042 173.877C100.586 173.872 100.117 173.943 99.637 174.088C99.1566 174.229 98.7612 174.411 98.4506 174.634L96.762 174.431L97.6646 167.094H105.409V168.695H99.1785L98.6544 173.091H98.7418C99.0475 172.849 99.4308 172.647 99.8917 172.487C100.353 172.327 100.833 172.247 101.333 172.247C102.245 172.247 103.058 172.465 103.771 172.902C104.489 173.334 105.052 173.926 105.46 174.678C105.872 175.43 106.078 176.289 106.078 177.255C106.078 178.206 105.865 179.055 105.438 179.802C105.016 180.544 104.433 181.131 103.691 181.563C102.949 181.99 102.104 182.204 101.158 182.204Z" fill="#565656"/>
</svg>
