<svg width="223" height="223" viewBox="0 0 223 223" fill="none" xmlns="http://www.w3.org/2000/svg">
<rect width="223" height="223" rx="25.6198" fill="#2D2B2C"/>
<path d="M37.2532 194.102H33.6668C33.6013 193.638 33.4676 193.225 33.2656 192.865C33.0636 192.499 32.8044 192.188 32.4877 191.932C32.1711 191.675 31.8054 191.479 31.3905 191.342C30.9811 191.206 30.5362 191.137 30.0559 191.137C29.1879 191.137 28.4319 191.353 27.7877 191.784C27.1436 192.21 26.6441 192.832 26.2893 193.651C25.9345 194.465 25.7571 195.453 25.7571 196.615C25.7571 197.811 25.9345 198.815 26.2893 199.629C26.6496 200.442 27.1518 201.056 27.7959 201.471C28.4401 201.886 29.1852 202.093 30.0313 202.093C30.5062 202.093 30.9456 202.03 31.3496 201.905C31.759 201.779 32.122 201.596 32.4386 201.356C32.7552 201.111 33.0172 200.813 33.2247 200.464C33.4376 200.114 33.585 199.716 33.6668 199.268L37.2532 199.285C37.1605 200.054 36.9285 200.797 36.5573 201.512C36.1915 202.221 35.6975 202.857 35.0752 203.42C34.4584 203.976 33.7214 204.419 32.8644 204.746C32.0128 205.068 31.0494 205.229 29.974 205.229C28.4783 205.229 27.1409 204.891 25.9618 204.214C24.7881 203.537 23.8602 202.557 23.1778 201.274C22.5009 199.992 22.1625 198.439 22.1625 196.615C22.1625 194.787 22.5064 193.231 23.1942 191.948C23.882 190.665 24.8154 189.688 25.9945 189.017C27.1736 188.34 28.5001 188.001 29.974 188.001C30.9456 188.001 31.8463 188.138 32.6761 188.411C33.5113 188.684 34.2509 189.082 34.8951 189.606C35.5392 190.125 36.0632 190.761 36.4672 191.514C36.8766 192.267 37.1386 193.13 37.2532 194.102ZM43.2183 197.729V205H39.7302V188.231H43.1201V194.642H43.2674C43.5513 193.9 44.0098 193.318 44.6431 192.898C45.2763 192.472 46.0705 192.259 47.0258 192.259C47.8992 192.259 48.6607 192.45 49.3103 192.832C49.9654 193.209 50.473 193.752 50.8333 194.462C51.199 195.166 51.3792 196.009 51.3737 196.992V205H47.8856V197.614C47.891 196.839 47.6945 196.236 47.296 195.805C46.903 195.373 46.3517 195.158 45.642 195.158C45.1671 195.158 44.7468 195.259 44.381 195.461C44.0208 195.663 43.7369 195.958 43.5295 196.345C43.3275 196.727 43.2238 197.188 43.2183 197.729ZM57.7052 205.237C56.9028 205.237 56.1877 205.098 55.5599 204.82C54.9322 204.536 54.4354 204.118 54.0697 203.567C53.7094 203.01 53.5293 202.317 53.5293 201.487C53.5293 200.789 53.6575 200.202 53.9141 199.727C54.1707 199.252 54.52 198.87 54.9622 198.58C55.4043 198.291 55.9066 198.073 56.4688 197.925C57.0365 197.778 57.6315 197.674 58.2538 197.614C58.9853 197.538 59.5748 197.467 60.0225 197.401C60.4701 197.33 60.7949 197.227 60.9969 197.09C61.1988 196.954 61.2998 196.752 61.2998 196.484V196.435C61.2998 195.917 61.1361 195.515 60.8085 195.232C60.4865 194.948 60.0279 194.806 59.4329 194.806C58.8052 194.806 58.3057 194.945 57.9345 195.223C57.5633 195.496 57.3176 195.84 57.1976 196.255L53.9714 195.993C54.1352 195.229 54.4572 194.568 54.9376 194.011C55.418 193.449 56.0376 193.018 56.7963 192.718C57.5606 192.412 58.4449 192.259 59.4493 192.259C60.148 192.259 60.8167 192.341 61.4554 192.505C62.0995 192.669 62.67 192.922 63.1667 193.266C63.6689 193.61 64.0647 194.052 64.354 194.593C64.6433 195.128 64.788 195.769 64.788 196.517V205H61.48V203.256H61.3817C61.1797 203.649 60.9095 203.996 60.5711 204.296C60.2326 204.591 59.826 204.823 59.351 204.992C58.8761 205.156 58.3275 205.237 57.7052 205.237ZM58.7042 202.83C59.2173 202.83 59.6704 202.729 60.0634 202.527C60.4564 202.32 60.7649 202.041 60.9887 201.692C61.2125 201.343 61.3244 200.947 61.3244 200.505V199.17C61.2152 199.241 61.0651 199.307 60.874 199.367C60.6884 199.421 60.4783 199.473 60.2435 199.522C60.0088 199.566 59.7741 199.607 59.5394 199.645C59.3046 199.678 59.0917 199.708 58.9007 199.735C58.4913 199.795 58.1337 199.891 57.828 200.022C57.5223 200.153 57.2849 200.33 57.1157 200.554C56.9464 200.772 56.8618 201.045 56.8618 201.373C56.8618 201.848 57.0338 202.211 57.3777 202.462C57.7271 202.707 58.1692 202.83 58.7042 202.83ZM67.4942 205V192.423H70.8759V194.617H71.0069C71.2361 193.837 71.621 193.247 72.1614 192.849C72.7018 192.445 73.3241 192.243 74.0283 192.243C74.203 192.243 74.3913 192.254 74.5933 192.276C74.7953 192.297 74.9727 192.327 75.1255 192.366V195.461C74.9618 195.412 74.7352 195.368 74.4459 195.33C74.1566 195.292 73.8918 195.272 73.6517 195.272C73.1385 195.272 72.68 195.384 72.276 195.608C71.8776 195.827 71.5609 196.132 71.3262 196.525C71.0969 196.918 70.9823 197.371 70.9823 197.884V205H67.4942ZM82.0261 205.246C80.7378 205.246 79.6297 204.973 78.7017 204.427C77.7792 203.875 77.0695 203.111 76.5728 202.134C76.0815 201.157 75.8358 200.033 75.8358 198.761C75.8358 197.472 76.0842 196.342 76.581 195.371C77.0832 194.394 77.7955 193.632 78.7181 193.086C79.6406 192.535 80.7378 192.259 82.0097 192.259C83.1069 192.259 84.0677 192.458 84.892 192.857C85.7162 193.255 86.3685 193.815 86.8489 194.536C87.3293 195.256 87.594 196.102 87.6432 197.074H84.3515C84.2587 196.446 84.0131 195.941 83.6146 195.559C83.2216 195.171 82.7057 194.978 82.067 194.978C81.5266 194.978 81.0544 195.125 80.6505 195.42C80.252 195.709 79.9408 196.132 79.717 196.689C79.4932 197.246 79.3813 197.92 79.3813 198.711C79.3813 199.514 79.4905 200.196 79.7088 200.759C79.9327 201.321 80.2465 201.749 80.6505 202.044C81.0544 202.339 81.5266 202.486 82.067 202.486C82.4655 202.486 82.8231 202.404 83.1397 202.241C83.4618 202.077 83.7265 201.839 83.9339 201.528C84.1468 201.212 84.286 200.832 84.3515 200.39H87.6432C87.5886 201.351 87.3266 202.197 86.8571 202.928C86.3931 203.654 85.7517 204.222 84.9329 204.632C84.1141 205.041 83.1451 205.246 82.0261 205.246ZM95.5591 205.246C94.2872 205.246 93.1872 204.975 92.2592 204.435C91.3367 203.889 90.6243 203.13 90.1221 202.159C89.6199 201.182 89.3688 200.049 89.3688 198.761C89.3688 197.461 89.6199 196.326 90.1221 195.354C90.6243 194.377 91.3367 193.618 92.2592 193.078C93.1872 192.532 94.2872 192.259 95.5591 192.259C96.831 192.259 97.9282 192.532 98.8507 193.078C99.7787 193.618 100.494 194.377 100.996 195.354C101.498 196.326 101.749 197.461 101.749 198.761C101.749 200.049 101.498 201.182 100.996 202.159C100.494 203.13 99.7787 203.889 98.8507 204.435C97.9282 204.975 96.831 205.246 95.5591 205.246ZM95.5754 202.544C96.1541 202.544 96.6372 202.38 97.0248 202.052C97.4123 201.719 97.7044 201.266 97.9009 200.693C98.1029 200.12 98.2038 199.468 98.2038 198.736C98.2038 198.005 98.1029 197.352 97.9009 196.779C97.7044 196.206 97.4123 195.753 97.0248 195.42C96.6372 195.087 96.1541 194.92 95.5754 194.92C94.9914 194.92 94.5001 195.087 94.1016 195.42C93.7085 195.753 93.411 196.206 93.2091 196.779C93.0126 197.352 92.9143 198.005 92.9143 198.736C92.9143 199.468 93.0126 200.12 93.2091 200.693C93.411 201.266 93.7085 201.719 94.1016 202.052C94.5001 202.38 94.9914 202.544 95.5754 202.544ZM107.604 205.237C106.801 205.237 106.086 205.098 105.459 204.82C104.831 204.536 104.334 204.118 103.968 203.567C103.608 203.01 103.428 202.317 103.428 201.487C103.428 200.789 103.556 200.202 103.813 199.727C104.069 199.252 104.419 198.87 104.861 198.58C105.303 198.291 105.805 198.073 106.367 197.925C106.935 197.778 107.53 197.674 108.152 197.614C108.884 197.538 109.473 197.467 109.921 197.401C110.369 197.33 110.694 197.227 110.895 197.09C111.097 196.954 111.198 196.752 111.198 196.484V196.435C111.198 195.917 111.035 195.515 110.707 195.232C110.385 194.948 109.927 194.806 109.332 194.806C108.704 194.806 108.204 194.945 107.833 195.223C107.462 195.496 107.216 195.84 107.096 196.255L103.87 195.993C104.034 195.229 104.356 194.568 104.836 194.011C105.317 193.449 105.936 193.018 106.695 192.718C107.459 192.412 108.344 192.259 109.348 192.259C110.047 192.259 110.715 192.341 111.354 192.505C111.998 192.669 112.569 192.922 113.065 193.266C113.568 193.61 113.963 194.052 114.253 194.593C114.542 195.128 114.687 195.769 114.687 196.517V205H111.379V203.256H111.28C111.078 203.649 110.808 203.996 110.47 204.296C110.131 204.591 109.725 204.823 109.25 204.992C108.775 205.156 108.226 205.237 107.604 205.237ZM108.603 202.83C109.116 202.83 109.569 202.729 109.962 202.527C110.355 202.32 110.663 202.041 110.887 201.692C111.111 201.343 111.223 200.947 111.223 200.505V199.17C111.114 199.241 110.964 199.307 110.773 199.367C110.587 199.421 110.377 199.473 110.142 199.522C109.907 199.566 109.673 199.607 109.438 199.645C109.203 199.678 108.99 199.708 108.799 199.735C108.39 199.795 108.032 199.891 107.727 200.022C107.421 200.153 107.184 200.33 107.014 200.554C106.845 200.772 106.76 201.045 106.76 201.373C106.76 201.848 106.932 202.211 107.276 202.462C107.626 202.707 108.068 202.83 108.603 202.83ZM120.881 188.231V205H117.393V188.231H120.881Z" fill="#F5F5F5"/>
<path d="M28.1326 182L30.5781 167.094H32.0338L29.5882 182H28.1326ZM21.3491 177.866L21.582 176.41H32.7034L32.4705 177.866H21.3491ZM22.8921 182L25.3377 167.094H26.7933L24.3478 182H22.8921ZM22.2225 172.684L22.4554 171.228H33.5768L33.3439 172.684H22.2225ZM35.4728 182V180.69L40.393 175.304C40.9704 174.673 41.4459 174.125 41.8195 173.659C42.1931 173.188 42.4697 172.747 42.6492 172.334C42.8336 171.917 42.9258 171.48 42.9258 171.024C42.9258 170.5 42.7997 170.047 42.5473 169.663C42.2999 169.28 41.9602 168.984 41.5284 168.775C41.0965 168.567 40.6113 168.462 40.0727 168.462C39.5001 168.462 39.0004 168.581 38.5734 168.819C38.1512 169.052 37.8237 169.379 37.5908 169.801C37.3627 170.224 37.2487 170.719 37.2487 171.286H35.531C35.531 170.413 35.7324 169.646 36.1351 168.986C36.5378 168.326 37.0862 167.812 37.78 167.443C38.4787 167.075 39.2624 166.89 40.1309 166.89C41.0043 166.89 41.7783 167.075 42.4527 167.443C43.1272 167.812 43.6561 168.309 44.0394 168.935C44.4227 169.561 44.6144 170.258 44.6144 171.024C44.6144 171.573 44.5149 172.109 44.316 172.633C44.1219 173.152 43.7822 173.732 43.297 174.372C42.8166 175.008 42.1495 175.784 41.2955 176.701L37.9474 180.282V180.399H44.8764V182H35.4728ZM52.7443 182H48.1444V167.094H52.9481C54.3941 167.094 55.6314 167.392 56.6601 167.989C57.6888 168.581 58.4773 169.433 59.0256 170.544C59.5739 171.65 59.848 172.975 59.848 174.518C59.848 176.071 59.5714 177.407 59.0183 178.528C58.4651 179.644 57.6597 180.503 56.6019 181.105C55.5441 181.702 54.2582 182 52.7443 182ZM49.9494 180.399H52.6279C53.8603 180.399 54.8817 180.161 55.6921 179.685C56.5024 179.21 57.1065 178.533 57.5044 177.655C57.9023 176.777 58.1012 175.731 58.1012 174.518C58.1012 173.314 57.9047 172.279 57.5117 171.41C57.1186 170.537 56.5315 169.867 55.7503 169.401C54.9691 168.93 53.9962 168.695 52.8317 168.695H49.9494V180.399ZM62.6138 182V180.69L67.534 175.304C68.1114 174.673 68.5869 174.125 68.9605 173.659C69.3341 173.188 69.6107 172.747 69.7903 172.334C69.9746 171.917 70.0668 171.48 70.0668 171.024C70.0668 170.5 69.9407 170.047 69.6884 169.663C69.4409 169.28 69.1012 168.984 68.6694 168.775C68.2375 168.567 67.7523 168.462 67.2137 168.462C66.6412 168.462 66.1414 168.581 65.7144 168.819C65.2922 169.052 64.9647 169.379 64.7318 169.801C64.5037 170.224 64.3897 170.719 64.3897 171.286H62.672C62.672 170.413 62.8734 169.646 63.2761 168.986C63.6789 168.326 64.2272 167.812 64.921 167.443C65.6198 167.075 66.4034 166.89 67.2719 166.89C68.1453 166.89 68.9193 167.075 69.5937 167.443C70.2682 167.812 70.7971 168.309 71.1804 168.935C71.5638 169.561 71.7554 170.258 71.7554 171.024C71.7554 171.573 71.6559 172.109 71.457 172.633C71.2629 173.152 70.9233 173.732 70.438 174.372C69.9577 175.008 69.2905 175.784 68.4365 176.701L65.0884 180.282V180.399H72.0174V182H62.6138ZM75.2854 182V167.094H80.4967C81.5351 167.094 82.3915 167.273 83.066 167.633C83.7405 167.987 84.2427 168.465 84.5726 169.066C84.9026 169.663 85.0675 170.326 85.0675 171.053C85.0675 171.694 84.9535 172.223 84.7255 172.64C84.5023 173.057 84.2063 173.387 83.8375 173.63C83.4736 173.872 83.0781 174.052 82.6511 174.168V174.314C83.1072 174.343 83.5658 174.503 84.0267 174.794C84.4877 175.086 84.8735 175.503 85.184 176.046C85.4945 176.59 85.6498 177.255 85.6498 178.041C85.6498 178.788 85.48 179.46 85.1403 180.057C84.8007 180.654 84.2645 181.127 83.5318 181.476C82.7991 181.825 81.8457 182 80.6714 182H75.2854ZM77.0905 180.399H80.6714C81.8505 180.399 82.6875 180.171 83.1824 179.715C83.6822 179.254 83.9321 178.696 83.9321 178.041C83.9321 177.536 83.8035 177.07 83.5464 176.643C83.2892 176.211 82.9229 175.867 82.4473 175.61C81.9718 175.348 81.409 175.217 80.7588 175.217H77.0905V180.399ZM77.0905 173.644H80.4385C80.982 173.644 81.472 173.538 81.9087 173.324C82.3503 173.111 82.6996 172.81 82.9568 172.422C83.2188 172.033 83.3498 171.577 83.3498 171.053C83.3498 170.398 83.1218 169.843 82.6657 169.387C82.2096 168.926 81.4866 168.695 80.4967 168.695H77.0905V173.644ZM88.3537 182V180.69L93.2739 175.304C93.8513 174.673 94.3268 174.125 94.7005 173.659C95.0741 173.188 95.3507 172.747 95.5302 172.334C95.7146 171.917 95.8068 171.48 95.8068 171.024C95.8068 170.5 95.6806 170.047 95.4283 169.663C95.1808 169.28 94.8412 168.984 94.4093 168.775C93.9775 168.567 93.4922 168.462 92.9536 168.462C92.3811 168.462 91.8813 168.581 91.4543 168.819C91.0322 169.052 90.7046 169.379 90.4717 169.801C90.2437 170.224 90.1296 170.719 90.1296 171.286H88.4119C88.4119 170.413 88.6133 169.646 89.0161 168.986C89.4188 168.326 89.9671 167.812 90.661 167.443C91.3597 167.075 92.1433 166.89 93.0119 166.89C93.8853 166.89 94.6592 167.075 95.3337 167.443C96.0081 167.812 96.537 168.309 96.9204 168.935C97.3037 169.561 97.4953 170.258 97.4953 171.024C97.4953 171.573 97.3959 172.109 97.1969 172.633C97.0028 173.152 96.6632 173.732 96.178 174.372C95.6976 175.008 95.0304 175.784 94.1764 176.701L90.8284 180.282V180.399H97.7574V182H88.3537ZM113.02 171.752H111.215C111.108 171.233 110.921 170.777 110.655 170.384C110.393 169.991 110.072 169.661 109.694 169.394C109.32 169.122 108.905 168.918 108.449 168.782C107.993 168.647 107.518 168.579 107.023 168.579C106.12 168.579 105.303 168.807 104.57 169.263C103.842 169.719 103.262 170.391 102.83 171.279C102.403 172.167 102.19 173.256 102.19 174.547C102.19 175.838 102.403 176.927 102.83 177.815C103.262 178.703 103.842 179.375 104.57 179.831C105.303 180.287 106.12 180.515 107.023 180.515C107.518 180.515 107.993 180.447 108.449 180.311C108.905 180.176 109.32 179.974 109.694 179.707C110.072 179.436 110.393 179.103 110.655 178.71C110.921 178.312 111.108 177.856 111.215 177.342H113.02C112.884 178.104 112.637 178.785 112.278 179.387C111.919 179.989 111.472 180.501 110.938 180.923C110.405 181.34 109.805 181.658 109.141 181.876C108.481 182.095 107.775 182.204 107.023 182.204C105.751 182.204 104.621 181.893 103.631 181.272C102.641 180.651 101.862 179.768 101.295 178.623C100.727 177.478 100.443 176.119 100.443 174.547C100.443 172.975 100.727 171.616 101.295 170.471C101.862 169.326 102.641 168.443 103.631 167.822C104.621 167.201 105.751 166.89 107.023 166.89C107.775 166.89 108.481 166.999 109.141 167.218C109.805 167.436 110.405 167.756 110.938 168.178C111.472 168.596 111.919 169.105 112.278 169.707C112.637 170.304 112.884 170.985 113.02 171.752Z" fill="#F5F5F5"/>
</svg>
