<svg width="223" height="223" viewBox="0 0 223 223" fill="none" xmlns="http://www.w3.org/2000/svg">
<rect width="223" height="223" rx="25.6198" fill="#389160"/>
<path d="M22.6517 204.611V187.842H33.7548V190.765H26.1972V194.761H33.0179V197.684H26.1972V204.611H22.6517ZM40.8335 204.857C39.5616 204.857 38.4617 204.587 37.5337 204.046C36.6111 203.5 35.8988 202.742 35.3966 201.77C34.8944 200.793 34.6433 199.66 34.6433 198.372C34.6433 197.073 34.8944 195.937 35.3966 194.966C35.8988 193.989 36.6111 193.23 37.5337 192.689C38.4617 192.143 39.5616 191.871 40.8335 191.871C42.1054 191.871 43.2026 192.143 44.1251 192.689C45.0531 193.23 45.7682 193.989 46.2704 194.966C46.7727 195.937 47.0238 197.073 47.0238 198.372C47.0238 199.66 46.7727 200.793 46.2704 201.77C45.7682 202.742 45.0531 203.5 44.1251 204.046C43.2026 204.587 42.1054 204.857 40.8335 204.857ZM40.8499 202.155C41.4285 202.155 41.9116 201.991 42.2992 201.664C42.6868 201.331 42.9788 200.878 43.1753 200.304C43.3773 199.731 43.4783 199.079 43.4783 198.347C43.4783 197.616 43.3773 196.964 43.1753 196.39C42.9788 195.817 42.6868 195.364 42.2992 195.031C41.9116 194.698 41.4285 194.532 40.8499 194.532C40.2658 194.532 39.7745 194.698 39.376 195.031C38.983 195.364 38.6855 195.817 38.4835 196.39C38.287 196.964 38.1887 197.616 38.1887 198.347C38.1887 199.079 38.287 199.731 38.4835 200.304C38.6855 200.878 38.983 201.331 39.376 201.664C39.7745 201.991 40.2658 202.155 40.8499 202.155ZM49.2919 204.611V192.034H52.6736V194.229H52.8046C53.0339 193.448 53.4187 192.859 53.9591 192.46C54.4995 192.056 55.1218 191.854 55.826 191.854C56.0007 191.854 56.189 191.865 56.391 191.887C56.593 191.909 56.7704 191.939 56.9232 191.977V195.072C56.7595 195.023 56.5329 194.979 56.2436 194.941C55.9543 194.903 55.6896 194.884 55.4494 194.884C54.9362 194.884 54.4777 194.996 54.0738 195.22C53.6753 195.438 53.3587 195.744 53.1239 196.137C52.8947 196.53 52.78 196.983 52.78 197.496V204.611H49.2919ZM63.8729 204.857C62.5792 204.857 61.4656 204.595 60.5322 204.071C59.6042 203.541 58.8891 202.794 58.3869 201.827C57.8847 200.856 57.6336 199.707 57.6336 198.38C57.6336 197.086 57.8847 195.951 58.3869 194.974C58.8891 193.997 59.596 193.235 60.5076 192.689C61.4247 192.143 62.5001 191.871 63.7337 191.871C64.5635 191.871 65.3359 192.004 66.051 192.272C66.7715 192.534 67.3993 192.93 67.9343 193.459C68.4747 193.989 68.895 194.655 69.1952 195.457C69.4955 196.254 69.6456 197.187 69.6456 198.257V199.215H59.0255V197.054H66.3621C66.3621 196.551 66.253 196.107 66.0346 195.719C65.8163 195.331 65.5133 195.028 65.1257 194.81C64.7436 194.586 64.2987 194.474 63.7911 194.474C63.2616 194.474 62.7921 194.597 62.3827 194.843C61.9787 195.083 61.6621 195.408 61.4329 195.817C61.2036 196.221 61.0862 196.672 61.0808 197.168V199.224C61.0808 199.846 61.1954 200.384 61.4247 200.837C61.6594 201.29 61.9897 201.639 62.4154 201.885C62.8412 202.13 63.3462 202.253 63.9303 202.253C64.3178 202.253 64.6726 202.199 64.9947 202.089C65.3168 201.98 65.5925 201.816 65.8217 201.598C66.051 201.38 66.2257 201.112 66.3458 200.796L69.5719 201.009C69.4081 201.784 69.0724 202.461 68.5648 203.039C68.0625 203.612 67.413 204.06 66.616 204.382C65.8244 204.699 64.9101 204.857 63.8729 204.857ZM82.3864 195.621L79.193 195.817C79.1384 195.544 79.021 195.299 78.8409 195.08C78.6608 194.857 78.4233 194.679 78.1285 194.548C77.8392 194.412 77.4926 194.343 77.0886 194.343C76.5482 194.343 76.0924 194.458 75.7212 194.687C75.35 194.911 75.1644 195.211 75.1644 195.588C75.1644 195.888 75.2845 196.142 75.5247 196.349C75.7649 196.557 76.177 196.723 76.7611 196.849L79.0374 197.307C80.2602 197.559 81.1718 197.963 81.7723 198.519C82.3727 199.076 82.6729 199.808 82.6729 200.714C82.6729 201.538 82.43 202.261 81.9442 202.884C81.4638 203.506 80.8033 203.992 79.9627 204.341C79.1275 204.685 78.164 204.857 77.0722 204.857C75.4073 204.857 74.0808 204.51 73.0928 203.817C72.1102 203.118 71.5343 202.169 71.3651 200.968L74.7959 200.787C74.8997 201.295 75.1508 201.683 75.5493 201.95C75.9477 202.212 76.4581 202.343 77.0804 202.343C77.6918 202.343 78.1831 202.226 78.5543 201.991C78.931 201.751 79.122 201.443 79.1275 201.066C79.122 200.749 78.9883 200.49 78.7263 200.288C78.4642 200.081 78.0603 199.922 77.5144 199.813L75.3364 199.379C74.1081 199.133 73.1938 198.708 72.5933 198.102C71.9983 197.496 71.7008 196.723 71.7008 195.784C71.7008 194.977 71.9192 194.281 72.3559 193.697C72.798 193.112 73.4176 192.662 74.2146 192.345C75.017 192.029 75.9559 191.871 77.0313 191.871C78.6198 191.871 79.8699 192.206 80.7815 192.878C81.6986 193.549 82.2335 194.463 82.3864 195.621ZM91.5591 192.034V194.655H83.9851V192.034H91.5591ZM85.7046 189.021H89.1928V200.747C89.1928 201.069 89.2419 201.32 89.3402 201.5C89.4384 201.675 89.5749 201.797 89.7496 201.868C89.9297 201.939 90.1371 201.975 90.3719 201.975C90.5356 201.975 90.6994 201.961 90.8632 201.934C91.0269 201.901 91.1525 201.876 91.2398 201.86L91.7884 204.456C91.6137 204.51 91.3681 204.573 91.0515 204.644C90.7349 204.721 90.35 204.767 89.8969 204.783C89.0563 204.816 88.3194 204.704 87.6861 204.448C87.0584 204.191 86.5698 203.793 86.2205 203.252C85.8711 202.712 85.6992 202.029 85.7046 201.205V189.021Z" fill="white"/>
<path d="M28.1326 182L30.5781 167.094H32.0338L29.5882 182H28.1326ZM21.3491 177.866L21.582 176.41H32.7034L32.4705 177.866H21.3491ZM22.8921 182L25.3377 167.094H26.7933L24.3478 182H22.8921ZM22.2225 172.684L22.4554 171.228H33.5768L33.3439 172.684H22.2225ZM40.5094 182.204C39.5487 182.204 38.6922 182.039 37.9401 181.709C37.1929 181.379 36.5985 180.92 36.1569 180.333C35.7202 179.741 35.4825 179.055 35.4437 178.273H37.2778C37.3166 178.754 37.4816 179.169 37.7727 179.518C38.0639 179.863 38.4448 180.129 38.9154 180.319C39.3861 180.508 39.9077 180.603 40.4803 180.603C41.1208 180.603 41.6885 180.491 42.1834 180.268C42.6784 180.045 43.0665 179.734 43.348 179.336C43.6294 178.938 43.7701 178.477 43.7701 177.953C43.7701 177.405 43.6343 176.922 43.3625 176.505C43.0908 176.083 42.6929 175.753 42.1689 175.515C41.6448 175.277 41.0043 175.158 40.2474 175.158H39.0537V173.557H40.2474C40.8394 173.557 41.3585 173.45 41.805 173.237C42.2562 173.023 42.608 172.723 42.8603 172.334C43.1175 171.946 43.2461 171.49 43.2461 170.966C43.2461 170.461 43.1345 170.022 42.9113 169.649C42.6881 169.275 42.3727 168.984 41.9651 168.775C41.5623 168.567 41.0868 168.462 40.5385 168.462C40.0242 168.462 39.539 168.557 39.0828 168.746C38.6316 168.93 38.2628 169.2 37.9765 169.554C37.6903 169.903 37.535 170.326 37.5107 170.82H35.7639C35.793 170.039 36.0284 169.355 36.4699 168.768C36.9115 168.176 37.4889 167.715 38.2022 167.385C38.9203 167.055 39.7088 166.89 40.5676 166.89C41.4896 166.89 42.2805 167.077 42.9404 167.451C43.6003 167.819 44.1073 168.307 44.4616 168.914C44.8158 169.52 44.9929 170.175 44.9929 170.879C44.9929 171.718 44.7721 172.434 44.3305 173.026C43.8938 173.618 43.2994 174.028 42.5473 174.256V174.372C43.4887 174.528 44.2238 174.928 44.7527 175.573C45.2816 176.214 45.546 177.007 45.546 177.953C45.546 178.764 45.3253 179.491 44.8837 180.137C44.447 180.777 43.8502 181.282 43.0932 181.651C42.3363 182.019 41.475 182.204 40.5094 182.204ZM53.2975 182.204C52.2979 182.204 51.4148 182.027 50.6482 181.672C49.8864 181.313 49.292 180.821 48.865 180.195C48.438 179.564 48.2269 178.846 48.2317 178.041C48.2269 177.41 48.3506 176.828 48.6029 176.294C48.8553 175.755 49.1998 175.306 49.6365 174.947C50.078 174.583 50.5705 174.353 51.114 174.256V174.168C50.4007 173.984 49.833 173.584 49.4108 172.968C48.9887 172.346 48.7801 171.64 48.7849 170.85C48.7801 170.093 48.9717 169.416 49.3599 168.819C49.7481 168.222 50.2818 167.751 50.9611 167.407C51.6453 167.062 52.4241 166.89 53.2975 166.89C54.1612 166.89 54.9327 167.062 55.612 167.407C56.2913 167.751 56.8251 168.222 57.2132 168.819C57.6063 169.416 57.8052 170.093 57.8101 170.85C57.8052 171.64 57.5893 172.346 57.1623 172.968C56.7402 173.584 56.1797 173.984 55.481 174.168V174.256C56.0196 174.353 56.5048 174.583 56.9367 174.947C57.3685 175.306 57.713 175.755 57.9702 176.294C58.2274 176.828 58.3584 177.41 58.3632 178.041C58.3584 178.846 58.14 179.564 57.7082 180.195C57.2812 180.821 56.6868 181.313 55.925 181.672C55.168 182.027 54.2922 182.204 53.2975 182.204ZM53.2975 180.603C53.972 180.603 54.5542 180.493 55.0443 180.275C55.5344 180.057 55.9128 179.749 56.1797 179.351C56.4466 178.953 56.5825 178.487 56.5873 177.953C56.5825 177.39 56.4369 176.893 56.1506 176.461C55.8643 176.029 55.4737 175.69 54.9788 175.442C54.4887 175.195 53.9283 175.071 53.2975 175.071C52.6618 175.071 52.0941 175.195 51.5944 175.442C51.0994 175.69 50.7088 176.029 50.4225 176.461C50.1411 176.893 50.0028 177.39 50.0077 177.953C50.0028 178.487 50.1314 178.953 50.3934 179.351C50.6603 179.749 51.0412 180.057 51.5361 180.275C52.0311 180.493 52.6182 180.603 53.2975 180.603ZM53.2975 173.528C53.8312 173.528 54.3043 173.421 54.7168 173.208C55.1341 172.994 55.4616 172.696 55.6993 172.312C55.9371 171.929 56.0584 171.48 56.0633 170.966C56.0584 170.461 55.9395 170.022 55.7066 169.649C55.4737 169.27 55.151 168.979 54.7386 168.775C54.3262 168.567 53.8458 168.462 53.2975 168.462C52.7395 168.462 52.2518 168.567 51.8345 168.775C51.4172 168.979 51.0946 169.27 50.8665 169.649C50.6385 170.022 50.5269 170.461 50.5317 170.966C50.5269 171.48 50.6409 171.929 50.8738 172.312C51.1116 172.696 51.4391 172.994 51.8564 173.208C52.2737 173.421 52.754 173.528 53.2975 173.528ZM65.8982 166.89C66.5095 166.895 67.1209 167.011 67.7323 167.239C68.3437 167.468 68.9017 167.846 69.4063 168.375C69.911 168.899 70.3161 169.615 70.6218 170.522C70.9275 171.429 71.0803 172.567 71.0803 173.936C71.0803 175.26 70.9542 176.437 70.7019 177.466C70.4544 178.489 70.0953 179.353 69.6247 180.057C69.1589 180.76 68.5911 181.294 67.9215 181.658C67.2568 182.022 66.5047 182.204 65.6652 182.204C64.8307 182.204 64.0858 182.039 63.4308 181.709C62.7806 181.374 62.2468 180.911 61.8296 180.319C61.4171 179.722 61.1527 179.03 61.0362 178.244H62.8121C62.9723 178.929 63.2901 179.494 63.7656 179.94C64.246 180.382 64.8792 180.603 65.6652 180.603C66.8152 180.603 67.7226 180.1 68.3874 179.096C69.057 178.092 69.3918 176.672 69.3918 174.838H69.2753C69.0036 175.246 68.6809 175.597 68.3073 175.893C67.9337 176.189 67.5188 176.417 67.0627 176.578C66.6066 176.738 66.1214 176.818 65.607 176.818C64.753 176.818 63.9694 176.607 63.2561 176.185C62.5477 175.758 61.98 175.173 61.553 174.431C61.1308 173.683 60.9198 172.829 60.9198 171.869C60.9198 170.956 61.1235 170.122 61.5311 169.365C61.9436 168.603 62.521 167.996 63.2634 167.545C64.0106 167.094 64.8889 166.876 65.8982 166.89ZM65.8982 168.491C65.2868 168.491 64.736 168.644 64.246 168.95C63.7607 169.251 63.375 169.658 63.0887 170.173C62.8073 170.682 62.6666 171.247 62.6666 171.869C62.6666 172.49 62.8024 173.055 63.0742 173.564C63.3507 174.069 63.7268 174.472 64.2023 174.773C64.6827 175.069 65.2285 175.217 65.8399 175.217C66.3009 175.217 66.7303 175.127 67.1282 174.947C67.5261 174.763 67.873 174.513 68.169 174.198C68.4698 173.877 68.7052 173.516 68.875 173.113C69.0448 172.706 69.1297 172.281 69.1297 171.839C69.1297 171.257 68.989 170.711 68.7076 170.202C68.431 169.692 68.0477 169.28 67.5576 168.964C67.0724 168.649 66.5192 168.491 65.8982 168.491ZM79.183 167.094V182H77.378V168.986H77.2906L73.6514 171.403V169.569L77.378 167.094H79.183ZM88.4192 182.204C87.8078 182.194 87.1965 182.078 86.5851 181.854C85.9737 181.631 85.4157 181.255 84.9111 180.726C84.4064 180.193 84.0013 179.472 83.6956 178.565C83.3899 177.652 83.237 176.507 83.237 175.129C83.237 173.809 83.3608 172.64 83.6082 171.621C83.8557 170.597 84.2148 169.736 84.6854 169.037C85.1561 168.334 85.7238 167.8 86.3886 167.436C87.0582 167.072 87.8127 166.89 88.6521 166.89C89.4867 166.89 90.2291 167.058 90.8793 167.392C91.5344 167.722 92.0681 168.183 92.4806 168.775C92.893 169.367 93.1599 170.049 93.2812 170.82H91.5053C91.3403 170.151 91.02 169.595 90.5445 169.154C90.069 168.712 89.4382 168.491 88.6521 168.491C87.4973 168.491 86.5875 168.994 85.9228 169.998C85.2628 171.002 84.9305 172.412 84.9256 174.227H85.0421C85.3138 173.814 85.6365 173.462 86.0101 173.171C86.3886 172.875 86.8059 172.647 87.262 172.487C87.7181 172.327 88.2009 172.247 88.7104 172.247C89.5644 172.247 90.3456 172.46 91.054 172.887C91.7624 173.31 92.3301 173.894 92.7571 174.642C93.1841 175.384 93.3976 176.236 93.3976 177.196C93.3976 178.118 93.1914 178.962 92.779 179.729C92.3665 180.491 91.7867 181.097 91.0394 181.549C90.297 181.995 89.4236 182.213 88.4192 182.204ZM88.4192 180.603C89.0306 180.603 89.5789 180.45 90.0641 180.144C90.5542 179.838 90.94 179.428 91.2214 178.914C91.5077 178.4 91.6508 177.827 91.6508 177.196C91.6508 176.58 91.5125 176.02 91.236 175.515C90.9642 175.005 90.5882 174.6 90.1078 174.299C89.6323 173.999 89.0888 173.848 88.4775 173.848C88.0165 173.848 87.5871 173.94 87.1892 174.125C86.7913 174.304 86.4419 174.552 86.1411 174.867C85.8451 175.183 85.6122 175.544 85.4424 175.952C85.2726 176.354 85.1876 176.779 85.1876 177.225C85.1876 177.817 85.3259 178.371 85.6025 178.885C85.8839 179.399 86.2673 179.814 86.7525 180.129C87.2426 180.445 87.7981 180.603 88.4192 180.603ZM101.122 182.204C100.025 182.204 99.0911 181.905 98.3196 181.309C97.5481 180.707 96.9586 179.836 96.551 178.696C96.1434 177.55 95.9396 176.168 95.9396 174.547C95.9396 172.936 96.1434 171.56 96.551 170.42C96.9634 169.275 97.5554 168.402 98.3269 167.8C99.1033 167.193 100.035 166.89 101.122 166.89C102.209 166.89 103.138 167.193 103.909 167.8C104.686 168.402 105.278 169.275 105.685 170.42C106.098 171.56 106.304 172.936 106.304 174.547C106.304 176.168 106.1 177.55 105.693 178.696C105.285 179.836 104.695 180.707 103.924 181.309C103.152 181.905 102.218 182.204 101.122 182.204ZM101.122 180.603C102.209 180.603 103.053 180.079 103.655 179.03C104.256 177.982 104.557 176.488 104.557 174.547C104.557 173.256 104.419 172.157 104.142 171.25C103.871 170.342 103.478 169.651 102.963 169.176C102.454 168.7 101.84 168.462 101.122 168.462C100.045 168.462 99.2027 168.994 98.5962 170.056C97.9897 171.114 97.6864 172.611 97.6864 174.547C97.6864 175.838 97.8223 176.934 98.094 177.837C98.3657 178.739 98.7563 179.426 99.2658 179.897C99.7801 180.367 100.399 180.603 101.122 180.603Z" fill="white"/>
</svg>
