<svg width="254" height="254" viewBox="0 0 254 254" fill="none" xmlns="http://www.w3.org/2000/svg">
<g filter="url(#filter0_d_9_551)">
<rect x="15.3719" y="11.5293" width="223" height="223" rx="25.6198" fill="#08A283"/>
</g>
<path d="M37.385 202.294V199.371H51.1575V202.294H46.0235V216.141H42.519V202.294H37.385ZM57.2679 216.386C55.9741 216.386 54.8606 216.124 53.9271 215.6C52.9991 215.071 52.284 214.323 51.7818 213.357C51.2796 212.385 51.0285 211.236 51.0285 209.909C51.0285 208.616 51.2796 207.48 51.7818 206.503C52.284 205.526 52.9909 204.765 53.9025 204.219C54.8196 203.673 55.895 203.4 57.1287 203.4C57.9584 203.4 58.7308 203.534 59.4459 203.801C60.1665 204.063 60.7942 204.459 61.3292 204.988C61.8696 205.518 62.2899 206.184 62.5902 206.986C62.8904 207.783 63.0405 208.717 63.0405 209.787V210.745H52.4205V208.583H59.7571C59.7571 208.081 59.6479 207.636 59.4295 207.248C59.2112 206.861 58.9082 206.558 58.5207 206.339C58.1385 206.116 57.6937 206.004 57.186 206.004C56.6565 206.004 56.187 206.127 55.7776 206.372C55.3737 206.612 55.0571 206.937 54.8278 207.347C54.5985 207.75 54.4812 208.201 54.4757 208.698V210.753C54.4757 211.375 54.5903 211.913 54.8196 212.366C55.0543 212.819 55.3846 213.168 55.8104 213.414C56.2362 213.66 56.7411 213.782 57.3252 213.782C57.7128 213.782 58.0676 213.728 58.3896 213.619C58.7117 213.509 58.9874 213.346 59.2167 213.127C59.4459 212.909 59.6206 212.642 59.7407 212.325L62.9668 212.538C62.8031 213.313 62.4674 213.99 61.9597 214.568C61.4575 215.142 60.8079 215.589 60.0109 215.911C59.2194 216.228 58.305 216.386 57.2679 216.386ZM68.9032 216.378C68.1008 216.378 67.3857 216.239 66.7579 215.96C66.1302 215.677 65.6334 215.259 65.2677 214.708C64.9074 214.151 64.7273 213.458 64.7273 212.628C64.7273 211.929 64.8556 211.342 65.1121 210.867C65.3687 210.393 65.718 210.01 66.1602 209.721C66.6024 209.432 67.1046 209.213 67.6668 209.066C68.2345 208.919 68.8295 208.815 69.4518 208.755C70.1833 208.678 70.7729 208.608 71.2205 208.542C71.6681 208.471 71.9929 208.367 72.1949 208.231C72.3969 208.094 72.4978 207.892 72.4978 207.625V207.576C72.4978 207.057 72.3341 206.656 72.0066 206.372C71.6845 206.088 71.226 205.946 70.6309 205.946C70.0032 205.946 69.5037 206.086 69.1325 206.364C68.7613 206.637 68.5157 206.981 68.3956 207.396L65.1694 207.134C65.3332 206.369 65.6553 205.709 66.1356 205.152C66.616 204.59 67.2356 204.159 67.9944 203.858C68.7586 203.553 69.6429 203.4 70.6473 203.4C71.346 203.4 72.0147 203.482 72.6534 203.645C73.2976 203.809 73.868 204.063 74.3647 204.407C74.867 204.751 75.2627 205.193 75.552 205.733C75.8413 206.268 75.986 206.91 75.986 207.658V216.141H72.678V214.397H72.5797C72.3778 214.79 72.1075 215.136 71.7691 215.436C71.4307 215.731 71.024 215.963 70.5491 216.132C70.0741 216.296 69.5255 216.378 68.9032 216.378ZM69.9022 213.971C70.4153 213.971 70.8684 213.87 71.2614 213.668C71.6545 213.46 71.9629 213.182 72.1867 212.833C72.4105 212.483 72.5224 212.087 72.5224 211.645V210.311C72.4132 210.382 72.2631 210.447 72.0721 210.507C71.8865 210.562 71.6763 210.614 71.4416 210.663C71.2068 210.706 70.9721 210.747 70.7374 210.786C70.5027 210.818 70.2898 210.848 70.0987 210.876C69.6893 210.936 69.3318 211.031 69.0261 211.162C68.7204 211.293 68.4829 211.471 68.3137 211.694C68.1445 211.913 68.0599 212.186 68.0599 212.513C68.0599 212.988 68.2318 213.351 68.5757 213.602C68.9251 213.848 69.3672 213.971 69.9022 213.971ZM82.1803 199.371V216.141H78.6922V199.371H82.1803Z" fill="white"/>
<path d="M43.3659 193.823L45.8115 178.917H47.2672L44.8216 193.823H43.3659ZM36.5825 189.689L36.8154 188.233H47.9368L47.7039 189.689H36.5825ZM38.1255 193.823L40.5711 178.917H42.0267L39.5812 193.823H38.1255ZM37.4559 184.507L37.6888 183.051H48.8102L48.5773 184.507H37.4559ZM55.5681 194.027C54.4715 194.027 53.5375 193.729 52.766 193.132C51.9944 192.53 51.4049 191.659 50.9973 190.519C50.5897 189.374 50.3859 187.991 50.3859 186.37C50.3859 184.759 50.5897 183.384 50.9973 182.243C51.4098 181.098 52.0017 180.225 52.7732 179.623C53.5496 179.017 54.4812 178.713 55.5681 178.713C56.655 178.713 57.5842 179.017 58.3557 179.623C59.1321 180.225 59.7241 181.098 60.1317 182.243C60.5441 183.384 60.7503 184.759 60.7503 186.37C60.7503 187.991 60.5465 189.374 60.1389 190.519C59.7313 191.659 59.1418 192.53 58.3703 193.132C57.5988 193.729 56.6647 194.027 55.5681 194.027ZM55.5681 192.426C56.655 192.426 57.4993 191.902 58.101 190.854C58.7027 189.806 59.0035 188.311 59.0035 186.37C59.0035 185.08 58.8652 183.98 58.5886 183.073C58.3169 182.166 57.9239 181.474 57.4095 180.999C56.9001 180.523 56.2863 180.285 55.5681 180.285C54.4909 180.285 53.6491 180.817 53.0425 181.879C52.436 182.937 52.1327 184.434 52.1327 186.37C52.1327 187.661 52.2686 188.758 52.5403 189.66C52.8121 190.563 53.2027 191.249 53.7121 191.72C54.2265 192.19 54.8451 192.426 55.5681 192.426ZM68.2907 194.027C67.2911 194.027 66.408 193.85 65.6414 193.496C64.8796 193.137 64.2852 192.644 63.8582 192.018C63.4312 191.387 63.2201 190.669 63.225 189.864C63.2201 189.233 63.3438 188.651 63.5962 188.117C63.8485 187.578 64.193 187.13 64.6297 186.771C65.0712 186.407 65.5637 186.176 66.1072 186.079V185.992C65.3939 185.807 64.8262 185.407 64.4041 184.791C63.9819 184.17 63.7733 183.464 63.7781 182.673C63.7733 181.916 63.9649 181.239 64.3531 180.642C64.7413 180.045 65.275 179.575 65.9543 179.23C66.6385 178.886 67.4173 178.713 68.2907 178.713C69.1544 178.713 69.9259 178.886 70.6052 179.23C71.2845 179.575 71.8183 180.045 72.2065 180.642C72.5995 181.239 72.7984 181.916 72.8033 182.673C72.7984 183.464 72.5825 184.17 72.1555 184.791C71.7334 185.407 71.1729 185.807 70.4742 185.992V186.079C71.0128 186.176 71.498 186.407 71.9299 186.771C72.3617 187.13 72.7062 187.578 72.9634 188.117C73.2206 188.651 73.3516 189.233 73.3564 189.864C73.3516 190.669 73.1332 191.387 72.7014 192.018C72.2744 192.644 71.68 193.137 70.9182 193.496C70.1612 193.85 69.2854 194.027 68.2907 194.027ZM68.2907 192.426C68.9652 192.426 69.5474 192.317 70.0375 192.098C70.5276 191.88 70.9061 191.572 71.1729 191.174C71.4398 190.776 71.5757 190.31 71.5805 189.776C71.5757 189.214 71.4301 188.716 71.1438 188.284C70.8575 187.853 70.4669 187.513 69.972 187.265C69.4819 187.018 68.9215 186.894 68.2907 186.894C67.6551 186.894 67.0873 187.018 66.5876 187.265C66.0926 187.513 65.702 187.853 65.4157 188.284C65.1343 188.716 64.996 189.214 65.0009 189.776C64.996 190.31 65.1246 190.776 65.3866 191.174C65.6535 191.572 66.0344 191.88 66.5293 192.098C67.0243 192.317 67.6114 192.426 68.2907 192.426ZM68.2907 185.351C68.8244 185.351 69.2975 185.244 69.71 185.031C70.1273 184.817 70.4548 184.519 70.6926 184.136C70.9303 183.752 71.0516 183.304 71.0565 182.789C71.0516 182.285 70.9327 181.845 70.6998 181.472C70.4669 181.093 70.1443 180.802 69.7318 180.598C69.3194 180.39 68.839 180.285 68.2907 180.285C67.7327 180.285 67.245 180.39 66.8278 180.598C66.4105 180.802 66.0878 181.093 65.8597 181.472C65.6317 181.845 65.5201 182.285 65.5249 182.789C65.5201 183.304 65.6341 183.752 65.867 184.136C66.1048 184.519 66.4323 184.817 66.8496 185.031C67.2669 185.244 67.7473 185.351 68.2907 185.351ZM77.0193 193.823H75.1269L80.6002 178.917H82.4635L87.9368 193.823H86.0444L81.5901 181.275H81.4736L77.0193 193.823ZM77.718 188.001H85.3457V189.602H77.718V188.001ZM89.9966 193.823V192.513L94.9168 187.127C95.4942 186.496 95.9697 185.948 96.3433 185.482C96.717 185.012 96.9935 184.57 97.1731 184.158C97.3575 183.74 97.4496 183.304 97.4496 182.847C97.4496 182.323 97.3235 181.87 97.0712 181.486C96.8237 181.103 96.484 180.807 96.0522 180.598C95.6203 180.39 95.1351 180.285 94.5965 180.285C94.024 180.285 93.5242 180.404 93.0972 180.642C92.675 180.875 92.3475 181.203 92.1146 181.625C91.8865 182.047 91.7725 182.542 91.7725 183.109H90.0548C90.0548 182.236 90.2562 181.469 90.6589 180.81C91.0617 180.15 91.61 179.635 92.3038 179.267C93.0026 178.898 93.7862 178.713 94.6548 178.713C95.5282 178.713 96.3021 178.898 96.9765 179.267C97.651 179.635 98.1799 180.133 98.5632 180.759C98.9466 181.385 99.1382 182.081 99.1382 182.847C99.1382 183.396 99.0388 183.932 98.8398 184.456C98.6457 184.975 98.3061 185.555 97.8208 186.196C97.3405 186.831 96.6733 187.608 95.8193 188.525L92.4712 192.106V192.222H99.4002V193.823H89.9966ZM107.181 194.027C106.181 194.027 105.298 193.85 104.531 193.496C103.77 193.137 103.175 192.644 102.748 192.018C102.321 191.387 102.11 190.669 102.115 189.864C102.11 189.233 102.234 188.651 102.486 188.117C102.739 187.578 103.083 187.13 103.52 186.771C103.961 186.407 104.454 186.176 104.997 186.079V185.992C104.284 185.807 103.716 185.407 103.294 184.791C102.872 184.17 102.663 183.464 102.668 182.673C102.663 181.916 102.855 181.239 103.243 180.642C103.631 180.045 104.165 179.575 104.844 179.23C105.529 178.886 106.307 178.713 107.181 178.713C108.045 178.713 108.816 178.886 109.495 179.23C110.175 179.575 110.708 180.045 111.097 180.642C111.49 181.239 111.689 181.916 111.693 182.673C111.689 183.464 111.473 184.17 111.046 184.791C110.623 185.407 110.063 185.807 109.364 185.992V186.079C109.903 186.176 110.388 186.407 110.82 186.771C111.252 187.13 111.596 187.578 111.854 188.117C112.111 188.651 112.242 189.233 112.247 189.864C112.242 190.669 112.023 191.387 111.591 192.018C111.164 192.644 110.57 193.137 109.808 193.496C109.051 193.85 108.176 194.027 107.181 194.027ZM107.181 192.426C107.855 192.426 108.438 192.317 108.928 192.098C109.418 191.88 109.796 191.572 110.063 191.174C110.33 190.776 110.466 190.31 110.471 189.776C110.466 189.214 110.32 188.716 110.034 188.284C109.748 187.853 109.357 187.513 108.862 187.265C108.372 187.018 107.812 186.894 107.181 186.894C106.545 186.894 105.977 187.018 105.478 187.265C104.983 187.513 104.592 187.853 104.306 188.284C104.024 188.716 103.886 189.214 103.891 189.776C103.886 190.31 104.015 190.776 104.277 191.174C104.544 191.572 104.925 191.88 105.419 192.098C105.914 192.317 106.501 192.426 107.181 192.426ZM107.181 185.351C107.715 185.351 108.188 185.244 108.6 185.031C109.017 184.817 109.345 184.519 109.583 184.136C109.82 183.752 109.942 183.304 109.947 182.789C109.942 182.285 109.823 181.845 109.59 181.472C109.357 181.093 109.034 180.802 108.622 180.598C108.209 180.39 107.729 180.285 107.181 180.285C106.623 180.285 106.135 180.39 105.718 180.598C105.301 180.802 104.978 181.093 104.75 181.472C104.522 181.845 104.41 182.285 104.415 182.789C104.41 183.304 104.524 183.752 104.757 184.136C104.995 184.519 105.322 184.817 105.74 185.031C106.157 185.244 106.637 185.351 107.181 185.351ZM120.073 194.027C119.112 194.027 118.255 193.862 117.503 193.532C116.756 193.202 116.162 192.744 115.72 192.156C115.283 191.565 115.046 190.878 115.007 190.097H116.841C116.88 190.577 117.045 190.992 117.336 191.341C117.627 191.686 118.008 191.953 118.479 192.142C118.949 192.331 119.471 192.426 120.043 192.426C120.684 192.426 121.252 192.314 121.747 192.091C122.242 191.868 122.63 191.557 122.911 191.159C123.193 190.761 123.333 190.301 123.333 189.776C123.333 189.228 123.197 188.745 122.926 188.328C122.654 187.906 122.256 187.576 121.732 187.338C121.208 187.1 120.568 186.982 119.811 186.982H118.617V185.38H119.811C120.403 185.38 120.922 185.274 121.368 185.06C121.819 184.847 122.171 184.546 122.424 184.158C122.681 183.769 122.809 183.313 122.809 182.789C122.809 182.285 122.698 181.845 122.474 181.472C122.251 181.098 121.936 180.807 121.528 180.598C121.126 180.39 120.65 180.285 120.102 180.285C119.587 180.285 119.102 180.38 118.646 180.569C118.195 180.754 117.826 181.023 117.54 181.377C117.253 181.727 117.098 182.149 117.074 182.644H115.327C115.356 181.862 115.592 181.178 116.033 180.591C116.475 179.999 117.052 179.538 117.765 179.208C118.484 178.878 119.272 178.713 120.131 178.713C121.053 178.713 121.844 178.9 122.504 179.274C123.163 179.643 123.671 180.13 124.025 180.737C124.379 181.343 124.556 181.998 124.556 182.702C124.556 183.541 124.335 184.257 123.894 184.849C123.457 185.441 122.863 185.851 122.111 186.079V186.196C123.052 186.351 123.787 186.751 124.316 187.396C124.845 188.037 125.109 188.83 125.109 189.776C125.109 190.587 124.888 191.315 124.447 191.96C124.01 192.6 123.413 193.105 122.656 193.474C121.899 193.843 121.038 194.027 120.073 194.027Z" fill="white"/>
<defs>
<filter id="filter0_d_9_551" x="-1.43051e-05" y="0.000370741" width="253.744" height="253.744" filterUnits="userSpaceOnUse" color-interpolation-filters="sRGB">
<feFlood flood-opacity="0" result="BackgroundImageFix"/>
<feColorMatrix in="SourceAlpha" type="matrix" values="0 0 0 0 0 0 0 0 0 0 0 0 0 0 0 0 0 0 127 0" result="hardAlpha"/>
<feOffset dy="3.84298"/>
<feGaussianBlur stdDeviation="7.68595"/>
<feComposite in2="hardAlpha" operator="out"/>
<feColorMatrix type="matrix" values="0 0 0 0 0.082135 0 0 0 0 0.0758995 0 0 0 0 0.387678 0 0 0 0.06 0"/>
<feBlend mode="normal" in2="BackgroundImageFix" result="effect1_dropShadow_9_551"/>
<feBlend mode="normal" in="SourceGraphic" in2="effect1_dropShadow_9_551" result="shape"/>
</filter>
</defs>
</svg>
