<svg width="223" height="223" viewBox="0 0 223 223" fill="none" xmlns="http://www.w3.org/2000/svg">
<rect width="223" height="223" rx="25.6198" fill="#DF8215"/>
<path d="M25.3477 205H21.5484L27.3374 188.231H31.9064L37.6872 205H33.8879L29.6874 192.063H29.5564L25.3477 205ZM25.1102 198.409H34.0844V201.176H25.1102V198.409ZM39.6401 205V192.423H42.9645V194.642H43.1119C43.3739 193.905 43.8106 193.324 44.422 192.898C45.0334 192.472 45.7648 192.259 46.6164 192.259C47.4789 192.259 48.2131 192.475 48.819 192.906C49.4249 193.332 49.8289 193.911 50.0309 194.642H50.1619C50.4184 193.921 50.8824 193.346 51.5539 192.914C52.2308 192.478 53.0305 192.259 53.953 192.259C55.1266 192.259 56.0792 192.633 56.8107 193.381C57.5476 194.123 57.9161 195.177 57.9161 196.542V205H54.4361V197.229C54.4361 196.531 54.2505 196.007 53.8793 195.657C53.5081 195.308 53.0441 195.133 52.4873 195.133C51.8541 195.133 51.3601 195.335 51.0053 195.739C50.6504 196.138 50.473 196.664 50.473 197.32V205H47.0913V197.156C47.0913 196.539 46.9139 196.048 46.5591 195.682C46.2097 195.316 45.7485 195.133 45.1753 195.133C44.7877 195.133 44.4384 195.232 44.1272 195.428C43.8215 195.619 43.5786 195.889 43.3985 196.239C43.2183 196.583 43.1283 196.987 43.1283 197.451V205H39.6401ZM60.7369 205V188.231H64.225V194.536H64.3315C64.4843 194.197 64.7054 193.853 64.9947 193.504C65.2895 193.149 65.6716 192.854 66.1411 192.62C66.616 192.379 67.2055 192.259 67.9097 192.259C68.8268 192.259 69.6729 192.499 70.448 192.98C71.2232 193.455 71.8428 194.173 72.3068 195.133C72.7707 196.089 73.0027 197.287 73.0027 198.728C73.0027 200.131 72.7762 201.315 72.3231 202.282C71.8755 203.242 71.2641 203.971 70.489 204.468C69.7193 204.959 68.8568 205.205 67.9015 205.205C67.2246 205.205 66.6487 205.093 66.1738 204.869C65.7044 204.645 65.3195 204.364 65.0193 204.026C64.7191 203.682 64.4898 203.335 64.3315 202.986H64.1759V205H60.7369ZM64.1513 198.711C64.1513 199.459 64.2551 200.112 64.4625 200.668C64.6699 201.225 64.9702 201.659 65.3632 201.97C65.7562 202.276 66.2339 202.429 66.7961 202.429C67.3638 202.429 67.8442 202.273 68.2372 201.962C68.6303 201.646 68.9278 201.209 69.1297 200.652C69.3372 200.09 69.4409 199.443 69.4409 198.711C69.4409 197.985 69.3399 197.347 69.1379 196.795C68.936 196.244 68.6385 195.813 68.2454 195.502C67.8524 195.191 67.3693 195.035 66.7961 195.035C66.2284 195.035 65.748 195.185 65.355 195.485C64.9674 195.786 64.6699 196.211 64.4625 196.763C64.2551 197.314 64.1513 197.964 64.1513 198.711ZM81.0619 205.246C79.7682 205.246 78.6546 204.984 77.7212 204.46C76.7932 203.93 76.0781 203.182 75.5759 202.216C75.0737 201.244 74.8226 200.095 74.8226 198.769C74.8226 197.475 75.0737 196.34 75.5759 195.363C76.0781 194.385 76.785 193.624 77.6966 193.078C78.6137 192.532 79.6891 192.259 80.9227 192.259C81.7525 192.259 82.5249 192.393 83.24 192.66C83.9605 192.922 84.5883 193.318 85.1233 193.848C85.6637 194.377 86.084 195.043 86.3842 195.846C86.6845 196.643 86.8346 197.576 86.8346 198.646V199.604H76.2145V197.442H83.5511C83.5511 196.94 83.442 196.495 83.2236 196.108C83.0053 195.72 82.7023 195.417 82.3147 195.199C81.9326 194.975 81.4877 194.863 80.9801 194.863C80.4506 194.863 79.9811 194.986 79.5717 195.232C79.1677 195.472 78.8511 195.797 78.6219 196.206C78.3926 196.61 78.2752 197.06 78.2698 197.557V199.612C78.2698 200.234 78.3844 200.772 78.6137 201.225C78.8484 201.678 79.1787 202.028 79.6044 202.273C80.0302 202.519 80.5352 202.642 81.1193 202.642C81.5068 202.642 81.8616 202.587 82.1837 202.478C82.5058 202.369 82.7815 202.205 83.0107 201.987C83.24 201.768 83.4147 201.501 83.5348 201.184L86.7609 201.397C86.5971 202.172 86.2614 202.849 85.7538 203.428C85.2515 204.001 84.602 204.449 83.805 204.771C83.0134 205.087 82.0991 205.246 81.0619 205.246ZM89.1109 205V192.423H92.4926V194.617H92.6236C92.8529 193.837 93.2377 193.247 93.7781 192.849C94.3186 192.445 94.9409 192.243 95.645 192.243C95.8197 192.243 96.0081 192.254 96.21 192.276C96.412 192.297 96.5894 192.327 96.7423 192.366V195.461C96.5785 195.412 96.352 195.368 96.0626 195.33C95.7733 195.292 95.5086 195.272 95.2684 195.272C94.7553 195.272 94.2967 195.384 93.8928 195.608C93.4943 195.827 93.1777 196.132 92.943 196.525C92.7137 196.918 92.5991 197.371 92.5991 197.884V205H89.1109Z" fill="white"/>
<path d="M28.1326 182L30.5781 167.094H32.0338L29.5882 182H28.1326ZM21.3491 177.866L21.582 176.41H32.7034L32.4705 177.866H21.3491ZM22.8921 182L25.3377 167.094H26.7933L24.3478 182H22.8921ZM22.2225 172.684L22.4554 171.228H33.5768L33.3439 172.684H22.2225ZM40.3347 182H35.7348V167.094H40.5385C41.9845 167.094 43.2218 167.392 44.2505 167.989C45.2792 168.581 46.0676 169.433 46.616 170.544C47.1643 171.65 47.4384 172.975 47.4384 174.518C47.4384 176.071 47.1618 177.407 46.6087 178.528C46.0555 179.644 45.25 180.503 44.1923 181.105C43.1345 181.702 41.8486 182 40.3347 182ZM37.5398 180.399H40.2183C41.4507 180.399 42.4721 180.161 43.2825 179.685C44.0928 179.21 44.6969 178.533 45.0948 177.655C45.4927 176.777 45.6916 175.731 45.6916 174.518C45.6916 173.314 45.4951 172.279 45.1021 171.41C44.709 170.537 44.1219 169.867 43.3407 169.401C42.5595 168.93 41.5866 168.695 40.4221 168.695H37.5398V180.399ZM50.4662 182V167.094H59.404V168.695H52.2712V173.732H58.7344V175.333H52.2712V182H50.4662ZM67.0081 182.204C66.0085 182.204 65.1254 182.027 64.3588 181.672C63.597 181.313 63.0026 180.821 62.5756 180.195C62.1486 179.564 61.9375 178.846 61.9424 178.041C61.9375 177.41 62.0612 176.828 62.3136 176.294C62.5659 175.755 62.9104 175.306 63.3471 174.947C63.7886 174.583 64.2811 174.353 64.8246 174.256V174.168C64.1113 173.984 63.5436 173.584 63.1215 172.968C62.6993 172.346 62.4907 171.64 62.4955 170.85C62.4907 170.093 62.6823 169.416 63.0705 168.819C63.4587 168.222 63.9924 167.751 64.6717 167.407C65.3559 167.062 66.1347 166.89 67.0081 166.89C67.8718 166.89 68.6433 167.062 69.3226 167.407C70.0019 167.751 70.5357 168.222 70.9239 168.819C71.3169 169.416 71.5158 170.093 71.5207 170.85C71.5158 171.64 71.2999 172.346 70.8729 172.968C70.4508 173.584 69.8903 173.984 69.1916 174.168V174.256C69.7302 174.353 70.2154 174.583 70.6473 174.947C71.0791 175.306 71.4236 175.755 71.6808 176.294C71.938 176.828 72.069 177.41 72.0738 178.041C72.069 178.846 71.8506 179.564 71.4188 180.195C70.9918 180.821 70.3974 181.313 69.6356 181.672C68.8786 182.027 68.0028 182.204 67.0081 182.204ZM67.0081 180.603C67.6826 180.603 68.2648 180.493 68.7549 180.275C69.245 180.057 69.6235 179.749 69.8903 179.351C70.1572 178.953 70.2931 178.487 70.2979 177.953C70.2931 177.39 70.1475 176.893 69.8612 176.461C69.5749 176.029 69.1843 175.69 68.6894 175.442C68.1993 175.195 67.6389 175.071 67.0081 175.071C66.3725 175.071 65.8047 175.195 65.305 175.442C64.81 175.69 64.4194 176.029 64.1331 176.461C63.8517 176.893 63.7134 177.39 63.7183 177.953C63.7134 178.487 63.842 178.953 64.104 179.351C64.3709 179.749 64.7518 180.057 65.2467 180.275C65.7417 180.493 66.3288 180.603 67.0081 180.603ZM67.0081 173.528C67.5418 173.528 68.0149 173.421 68.4274 173.208C68.8447 172.994 69.1722 172.696 69.41 172.312C69.6477 171.929 69.769 171.48 69.7739 170.966C69.769 170.461 69.6501 170.022 69.4172 169.649C69.1843 169.27 68.8617 168.979 68.4492 168.775C68.0368 168.567 67.5564 168.462 67.0081 168.462C66.4501 168.462 65.9624 168.567 65.5452 168.775C65.1279 168.979 64.8052 169.27 64.5771 169.649C64.3491 170.022 64.2375 170.461 64.2423 170.966C64.2375 171.48 64.3515 171.929 64.5844 172.312C64.8222 172.696 65.1497 172.994 65.567 173.208C65.9843 173.421 66.4647 173.528 67.0081 173.528ZM74.8633 182V180.69L79.7834 175.304C80.3609 174.673 80.8364 174.125 81.21 173.659C81.5836 173.188 81.8602 172.747 82.0397 172.334C82.2241 171.917 82.3163 171.48 82.3163 171.024C82.3163 170.5 82.1902 170.047 81.9378 169.663C81.6904 169.28 81.3507 168.984 80.9189 168.775C80.487 168.567 80.0018 168.462 79.4632 168.462C78.8906 168.462 78.3909 168.581 77.9639 168.819C77.5417 169.052 77.2142 169.379 76.9813 169.801C76.7532 170.224 76.6392 170.719 76.6392 171.286H74.9215C74.9215 170.413 75.1229 169.646 75.5256 168.986C75.9283 168.326 76.4766 167.812 77.1705 167.443C77.8692 167.075 78.6529 166.89 79.5214 166.89C80.3948 166.89 81.1688 167.075 81.8432 167.443C82.5177 167.812 83.0466 168.309 83.4299 168.935C83.8132 169.561 84.0049 170.258 84.0049 171.024C84.0049 171.573 83.9054 172.109 83.7065 172.633C83.5124 173.152 83.1727 173.732 82.6875 174.372C82.2071 175.008 81.54 175.784 80.686 176.701L77.3379 180.282V180.399H84.2669V182H74.8633ZM92.5133 167.094V182H90.7083V168.986H90.6209L86.9818 171.403V169.569L90.7083 167.094H92.5133ZM101.458 182.204C100.604 182.204 99.8353 182.034 99.1512 181.694C98.467 181.355 97.9187 180.889 97.5063 180.297C97.0938 179.705 96.8682 179.03 96.8294 178.273H98.5762C98.6441 178.948 98.9498 179.506 99.4933 179.948C100.042 180.384 100.697 180.603 101.458 180.603C102.07 180.603 102.613 180.459 103.089 180.173C103.569 179.887 103.945 179.494 104.217 178.994C104.493 178.489 104.632 177.919 104.632 177.284C104.632 176.633 104.489 176.054 104.202 175.544C103.921 175.03 103.533 174.625 103.038 174.329C102.543 174.033 101.978 173.882 101.342 173.877C100.886 173.872 100.418 173.943 99.9372 174.088C99.4569 174.229 99.0614 174.411 98.7509 174.634L97.0623 174.431L97.9648 167.094H105.709V168.695H99.4787L98.9547 173.091H99.042C99.3477 172.849 99.731 172.647 100.192 172.487C100.653 172.327 101.133 172.247 101.633 172.247C102.545 172.247 103.358 172.465 104.071 172.902C104.789 173.334 105.352 173.926 105.76 174.678C106.172 175.43 106.379 176.289 106.379 177.255C106.379 178.206 106.165 179.055 105.738 179.802C105.316 180.544 104.734 181.131 103.991 181.563C103.249 181.99 102.405 182.204 101.458 182.204Z" fill="white"/>
</svg>
