<svg width="223" height="223" viewBox="0 0 223 223" fill="none" xmlns="http://www.w3.org/2000/svg">
<rect width="223" height="223" rx="25.6198" fill="#565656"/>
<path d="M31.7487 192.665C31.6832 192.004 31.4021 191.491 30.9054 191.125C30.4086 190.76 29.7345 190.577 28.8829 190.577C28.3043 190.577 27.8157 190.659 27.4172 190.822C27.0187 190.981 26.713 191.202 26.5001 191.486C26.2927 191.77 26.189 192.092 26.189 192.452C26.1781 192.752 26.2408 193.014 26.3773 193.238C26.5192 193.462 26.713 193.656 26.9587 193.819C27.2043 193.978 27.4882 194.117 27.8102 194.237C28.1323 194.352 28.4762 194.45 28.842 194.532L30.3486 194.892C31.08 195.056 31.7515 195.274 32.3629 195.547C32.9742 195.82 33.5037 196.156 33.9514 196.554C34.399 196.953 34.7456 197.422 34.9913 197.963C35.2424 198.503 35.3706 199.123 35.3761 199.821C35.3706 200.848 35.1086 201.737 34.59 202.491C34.0769 203.238 33.3345 203.82 32.3629 204.235C31.3967 204.644 30.2312 204.849 28.8665 204.849C27.5127 204.849 26.3336 204.641 25.3292 204.226C24.3303 203.812 23.5497 203.198 22.9874 202.384C22.4306 201.565 22.1386 200.553 22.1113 199.346H25.5421C25.5803 199.909 25.7414 200.378 26.0252 200.755C26.3145 201.126 26.6994 201.407 27.1798 201.598C27.6656 201.784 28.2142 201.876 28.8256 201.876C29.426 201.876 29.9474 201.789 30.3895 201.614C30.8371 201.44 31.1838 201.197 31.4294 200.886C31.6751 200.575 31.7979 200.217 31.7979 199.813C31.7979 199.436 31.686 199.12 31.4622 198.863C31.2438 198.607 30.9217 198.388 30.496 198.208C30.0756 198.028 29.5598 197.864 28.9484 197.717L27.1224 197.258C25.7086 196.914 24.5923 196.377 23.7735 195.645C22.9547 194.914 22.548 193.929 22.5534 192.689C22.548 191.674 22.8182 190.787 23.3641 190.028C23.9154 189.269 24.6715 188.677 25.6322 188.251C26.5929 187.826 27.6847 187.613 28.9075 187.613C30.1521 187.613 31.2384 187.826 32.1663 188.251C33.0998 188.677 33.8258 189.269 34.3444 190.028C34.863 190.787 35.1305 191.666 35.1468 192.665H31.7487ZM41.1836 187.842V204.611H37.6954V187.842H41.1836ZM47.5642 204.849C46.7617 204.849 46.0466 204.71 45.4189 204.431C44.7911 204.147 44.2944 203.73 43.9286 203.178C43.5684 202.622 43.3882 201.928 43.3882 201.099C43.3882 200.4 43.5165 199.813 43.7731 199.338C44.0296 198.863 44.379 198.481 44.8211 198.192C45.2633 197.902 45.7655 197.684 46.3278 197.537C46.8955 197.389 47.4905 197.286 48.1128 197.226C48.8443 197.149 49.4338 197.078 49.8814 197.013C50.329 196.942 50.6538 196.838 50.8558 196.702C51.0578 196.565 51.1588 196.363 51.1588 196.096V196.047C51.1588 195.528 50.995 195.127 50.6675 194.843C50.3454 194.559 49.8869 194.417 49.2919 194.417C48.6641 194.417 48.1646 194.556 47.7934 194.835C47.4222 195.108 47.1766 195.452 47.0565 195.866L43.8304 195.604C43.9941 194.84 44.3162 194.18 44.7966 193.623C45.2769 193.061 45.8965 192.629 46.6553 192.329C47.4195 192.023 48.3038 191.871 49.3083 191.871C50.007 191.871 50.6757 191.952 51.3144 192.116C51.9585 192.28 52.5289 192.534 53.0257 192.878C53.5279 193.222 53.9236 193.664 54.213 194.204C54.5023 194.739 54.6469 195.381 54.6469 196.128V204.611H51.3389V202.867H51.2407C51.0387 203.26 50.7685 203.607 50.43 203.907C50.0916 204.202 49.6849 204.434 49.21 204.603C48.7351 204.767 48.1865 204.849 47.5642 204.849ZM48.5631 202.441C49.0763 202.441 49.5293 202.34 49.9224 202.139C50.3154 201.931 50.6238 201.653 50.8476 201.303C51.0714 200.954 51.1833 200.558 51.1833 200.116V198.781C51.0742 198.852 50.924 198.918 50.733 198.978C50.5474 199.032 50.3372 199.084 50.1025 199.133C49.8678 199.177 49.633 199.218 49.3983 199.256C49.1636 199.289 48.9507 199.319 48.7596 199.346C48.3502 199.406 47.9927 199.502 47.687 199.633C47.3813 199.764 47.1438 199.941 46.9746 200.165C46.8054 200.384 46.7208 200.656 46.7208 200.984C46.7208 201.459 46.8927 201.822 47.2366 202.073C47.586 202.319 48.0282 202.441 48.5631 202.441ZM64.0428 192.034V194.655H56.4688V192.034H64.0428ZM58.1883 189.021H61.6765V200.747C61.6765 201.069 61.7256 201.32 61.8239 201.5C61.9221 201.675 62.0586 201.797 62.2333 201.868C62.4134 201.939 62.6208 201.975 62.8556 201.975C63.0193 201.975 63.1831 201.961 63.3469 201.934C63.5106 201.901 63.6362 201.876 63.7235 201.86L64.2721 204.456C64.0974 204.51 63.8518 204.573 63.5352 204.644C63.2186 204.721 62.8337 204.767 62.3806 204.783C61.54 204.816 60.8031 204.704 60.1698 204.448C59.5421 204.191 59.0535 203.793 58.7042 203.252C58.3548 202.712 58.1829 202.029 58.1883 201.205V189.021ZM71.9117 204.857C70.6179 204.857 69.5043 204.595 68.5709 204.071C67.6429 203.541 66.9278 202.794 66.4256 201.827C65.9234 200.856 65.6723 199.707 65.6723 198.38C65.6723 197.086 65.9234 195.951 66.4256 194.974C66.9278 193.997 67.6347 193.235 68.5463 192.689C69.4634 192.143 70.5388 191.871 71.7725 191.871C72.6022 191.871 73.3746 192.004 74.0897 192.272C74.8103 192.534 75.438 192.93 75.973 193.459C76.5134 193.989 76.9337 194.655 77.234 195.457C77.5342 196.254 77.6843 197.187 77.6843 198.257V199.215H67.0643V197.054H74.4009C74.4009 196.551 74.2917 196.107 74.0733 195.719C73.855 195.331 73.552 195.028 73.1644 194.81C72.7823 194.586 72.3374 194.474 71.8298 194.474C71.3003 194.474 70.8308 194.597 70.4214 194.843C70.0175 195.083 69.7009 195.408 69.4716 195.817C69.2423 196.221 69.125 196.672 69.1195 197.168V199.224C69.1195 199.846 69.2341 200.384 69.4634 200.837C69.6981 201.29 70.0284 201.639 70.4542 201.885C70.88 202.13 71.3849 202.253 71.969 202.253C72.3566 202.253 72.7114 202.199 73.0334 202.089C73.3555 201.98 73.6312 201.816 73.8604 201.598C74.0897 201.38 74.2644 201.112 74.3845 200.796L77.6106 201.009C77.4469 201.784 77.1111 202.461 76.6035 203.039C76.1013 203.612 75.4517 204.06 74.6547 204.382C73.8632 204.699 72.9488 204.857 71.9117 204.857Z" fill="#F5F5F5"/>
<path d="M28.1326 182L30.5781 167.094H32.0338L29.5882 182H28.1326ZM21.3491 177.866L21.582 176.41H32.7034L32.4705 177.866H21.3491ZM22.8921 182L25.3377 167.094H26.7933L24.3478 182H22.8921ZM22.2225 172.684L22.4554 171.228H33.5768L33.3439 172.684H22.2225ZM40.1309 182.204C39.2769 182.204 38.5079 182.034 37.8237 181.694C37.1395 181.355 36.5912 180.889 36.1788 180.297C35.7663 179.705 35.5407 179.03 35.5019 178.273H37.2487C37.3166 178.948 37.6223 179.506 38.1658 179.948C38.7141 180.384 39.3691 180.603 40.1309 180.603C40.7423 180.603 41.2858 180.459 41.7613 180.173C42.2417 179.887 42.6177 179.494 42.8894 178.994C43.166 178.489 43.3043 177.919 43.3043 177.284C43.3043 176.633 43.1612 176.054 42.8749 175.544C42.5934 175.03 42.2053 174.625 41.7103 174.329C41.2154 174.033 40.6501 173.882 40.0145 173.877C39.5584 173.872 39.0901 173.943 38.6098 174.088C38.1294 174.229 37.7339 174.411 37.4234 174.634L35.7348 174.431L36.6373 167.094H44.3815V168.695H38.1512L37.6272 173.091H37.7145C38.0202 172.849 38.4035 172.647 38.8645 172.487C39.3255 172.327 39.8058 172.247 40.3056 172.247C41.2178 172.247 42.0306 172.465 42.7439 172.902C43.462 173.334 44.0249 173.926 44.4324 174.678C44.8449 175.43 45.0511 176.289 45.0511 177.255C45.0511 178.206 44.8376 179.055 44.4106 179.802C43.9885 180.544 43.4062 181.131 42.6638 181.563C41.9214 181.99 41.0771 182.204 40.1309 182.204ZM52.8917 182.204C52.2803 182.194 51.669 182.078 51.0576 181.854C50.4462 181.631 49.8882 181.255 49.3836 180.726C48.8789 180.193 48.4738 179.472 48.1681 178.565C47.8624 177.652 47.7095 176.507 47.7095 175.129C47.7095 173.809 47.8333 172.64 48.0807 171.621C48.3282 170.597 48.6873 169.736 49.1579 169.037C49.6286 168.334 50.1963 167.8 50.8611 167.436C51.5307 167.072 52.2852 166.89 53.1246 166.89C53.9592 166.89 54.7016 167.058 55.3518 167.392C56.0069 167.722 56.5406 168.183 56.953 168.775C57.3655 169.367 57.6324 170.049 57.7537 170.82H55.9777C55.8128 170.151 55.4925 169.595 55.017 169.154C54.5415 168.712 53.9107 168.491 53.1246 168.491C51.9698 168.491 51.06 168.994 50.3952 169.998C49.7353 171.002 49.403 172.412 49.3981 174.227H49.5146C49.7863 173.814 50.109 173.462 50.4826 173.171C50.8611 172.875 51.2784 172.647 51.7345 172.487C52.1906 172.327 52.6734 172.247 53.1829 172.247C54.0368 172.247 54.8181 172.46 55.5265 172.887C56.2349 173.31 56.8026 173.894 57.2296 174.642C57.6566 175.384 57.8701 176.236 57.8701 177.196C57.8701 178.118 57.6639 178.962 57.2515 179.729C56.839 180.491 56.2592 181.097 55.5119 181.549C54.7695 181.995 53.8961 182.213 52.8917 182.204ZM52.8917 180.603C53.5031 180.603 54.0514 180.45 54.5366 180.144C55.0267 179.838 55.4125 179.428 55.6939 178.914C55.9802 178.4 56.1233 177.827 56.1233 177.196C56.1233 176.58 55.985 176.02 55.7084 175.515C55.4367 175.005 55.0607 174.6 54.5803 174.299C54.1048 173.999 53.5613 173.848 52.9499 173.848C52.489 173.848 52.0596 173.94 51.6617 174.125C51.2638 174.304 50.9144 174.552 50.6136 174.867C50.3176 175.183 50.0847 175.544 49.9149 175.952C49.745 176.354 49.6601 176.779 49.6601 177.225C49.6601 177.817 49.7984 178.371 50.075 178.885C50.3564 179.399 50.7398 179.814 51.225 180.129C51.7151 180.445 52.2706 180.603 52.8917 180.603ZM65.3905 182.204C64.5365 182.204 63.7674 182.034 63.0832 181.694C62.3991 181.355 61.8508 180.889 61.4383 180.297C61.0259 179.705 60.8003 179.03 60.7614 178.273H62.5083C62.5762 178.948 62.8819 179.506 63.4253 179.948C63.9736 180.384 64.6287 180.603 65.3905 180.603C66.0019 180.603 66.5453 180.459 67.0208 180.173C67.5012 179.887 67.8773 179.494 68.149 178.994C68.4256 178.489 68.5639 177.919 68.5639 177.284C68.5639 176.633 68.4207 176.054 68.1344 175.544C67.853 175.03 67.4648 174.625 66.9699 174.329C66.475 174.033 65.9097 173.882 65.274 173.877C64.8179 173.872 64.3497 173.943 63.8693 174.088C63.3889 174.229 62.9935 174.411 62.6829 174.634L60.9944 174.431L61.8969 167.094H69.6411V168.695H63.4108L62.8867 173.091H62.9741C63.2798 172.849 63.6631 172.647 64.1241 172.487C64.585 172.327 65.0654 172.247 65.5652 172.247C66.4774 172.247 67.2901 172.465 68.0034 172.902C68.7216 173.334 69.2844 173.926 69.692 174.678C70.1044 175.43 70.3107 176.289 70.3107 177.255C70.3107 178.206 70.0972 179.055 69.6702 179.802C69.248 180.544 68.6658 181.131 67.9234 181.563C67.181 181.99 66.3367 182.204 65.3905 182.204ZM78.1513 182.204C77.5399 182.194 76.9285 182.078 76.3171 181.854C75.7057 181.631 75.1477 181.255 74.6431 180.726C74.1385 180.193 73.7333 179.472 73.4276 178.565C73.1219 177.652 72.9691 176.507 72.9691 175.129C72.9691 173.809 73.0928 172.64 73.3403 171.621C73.5877 170.597 73.9468 169.736 74.4175 169.037C74.8881 168.334 75.4559 167.8 76.1206 167.436C76.7902 167.072 77.5447 166.89 78.3842 166.89C79.2188 166.89 79.9612 167.058 80.6114 167.392C81.2664 167.722 81.8002 168.183 82.2126 168.775C82.625 169.367 82.8919 170.049 83.0132 170.82H81.2373C81.0723 170.151 80.7521 169.595 80.2766 169.154C79.801 168.712 79.1702 168.491 78.3842 168.491C77.2294 168.491 76.3196 168.994 75.6548 169.998C74.9949 171.002 74.6625 172.412 74.6577 174.227H74.7741C75.0458 173.814 75.3685 173.462 75.7421 173.171C76.1206 172.875 76.5379 172.647 76.994 172.487C77.4501 172.327 77.9329 172.247 78.4424 172.247C79.2964 172.247 80.0776 172.46 80.786 172.887C81.4945 173.31 82.0622 173.894 82.4892 174.642C82.9162 175.384 83.1297 176.236 83.1297 177.196C83.1297 178.118 82.9235 178.962 82.511 179.729C82.0986 180.491 81.5187 181.097 80.7715 181.549C80.0291 181.995 79.1557 182.213 78.1513 182.204ZM78.1513 180.603C78.7627 180.603 79.311 180.45 79.7962 180.144C80.2863 179.838 80.672 179.428 80.9534 178.914C81.2397 178.4 81.3829 177.827 81.3829 177.196C81.3829 176.58 81.2446 176.02 80.968 175.515C80.6963 175.005 80.3202 174.6 79.8399 174.299C79.3643 173.999 78.8209 173.848 78.2095 173.848C77.7485 173.848 77.3191 173.94 76.9212 174.125C76.5233 174.304 76.174 174.552 75.8731 174.867C75.5772 175.183 75.3443 175.544 75.1744 175.952C75.0046 176.354 74.9197 176.779 74.9197 177.225C74.9197 177.817 75.058 178.371 75.3346 178.885C75.616 179.399 75.9993 179.814 76.4845 180.129C76.9746 180.445 77.5302 180.603 78.1513 180.603ZM90.65 182.204C89.796 182.204 89.027 182.034 88.3428 181.694C87.6586 181.355 87.1103 180.889 86.6979 180.297C86.2855 179.705 86.0598 179.03 86.021 178.273H87.7678C87.8357 178.948 88.1414 179.506 88.6849 179.948C89.2332 180.384 89.8882 180.603 90.65 180.603C91.2614 180.603 91.8049 180.459 92.2804 180.173C92.7608 179.887 93.1368 179.494 93.4085 178.994C93.6851 178.489 93.8234 177.919 93.8234 177.284C93.8234 176.633 93.6803 176.054 93.394 175.544C93.1126 175.03 92.7244 174.625 92.2294 174.329C91.7345 174.033 91.1692 173.882 90.5336 173.877C90.0775 173.872 89.6092 173.943 89.1289 174.088C88.6485 174.229 88.253 174.411 87.9425 174.634L86.2539 174.431L87.1564 167.094H94.9006V168.695H88.6703L88.1463 173.091H88.2336C88.5393 172.849 88.9226 172.647 89.3836 172.487C89.8446 172.327 90.3249 172.247 90.8247 172.247C91.7369 172.247 92.5497 172.465 93.263 172.902C93.9811 173.334 94.544 173.926 94.9516 174.678C95.364 175.43 95.5702 176.289 95.5702 177.255C95.5702 178.206 95.3567 179.055 94.9297 179.802C94.5076 180.544 93.9253 181.131 93.1829 181.563C92.4405 181.99 91.5962 182.204 90.65 182.204ZM103.411 182.204C102.799 182.194 102.188 182.078 101.577 181.854C100.965 181.631 100.407 181.255 99.9027 180.726C99.398 180.193 98.9929 179.472 98.6872 178.565C98.3815 177.652 98.2286 176.507 98.2286 175.129C98.2286 173.809 98.3524 172.64 98.5998 171.621C98.8473 170.597 99.2064 169.736 99.677 169.037C100.148 168.334 100.715 167.8 101.38 167.436C102.05 167.072 102.804 166.89 103.644 166.89C104.478 166.89 105.221 167.058 105.871 167.392C106.526 167.722 107.06 168.183 107.472 168.775C107.885 169.367 108.151 170.049 108.273 170.82H106.497C106.332 170.151 106.012 169.595 105.536 169.154C105.061 168.712 104.43 168.491 103.644 168.491C102.489 168.491 101.579 168.994 100.914 169.998C100.254 171.002 99.9221 172.412 99.9172 174.227H100.034C100.305 173.814 100.628 173.462 101.002 173.171C101.38 172.875 101.797 172.647 102.254 172.487C102.71 172.327 103.192 172.247 103.702 172.247C104.556 172.247 105.337 172.46 106.046 172.887C106.754 173.31 107.322 173.894 107.749 174.642C108.176 175.384 108.389 176.236 108.389 177.196C108.389 178.118 108.183 178.962 107.771 179.729C107.358 180.491 106.778 181.097 106.031 181.549C105.289 181.995 104.415 182.213 103.411 182.204ZM103.411 180.603C104.022 180.603 104.571 180.45 105.056 180.144C105.546 179.838 105.932 179.428 106.213 178.914C106.499 178.4 106.642 177.827 106.642 177.196C106.642 176.58 106.504 176.02 106.228 175.515C105.956 175.005 105.58 174.6 105.099 174.299C104.624 173.999 104.08 173.848 103.469 173.848C103.008 173.848 102.579 173.94 102.181 174.125C101.783 174.304 101.434 174.552 101.133 174.867C100.837 175.183 100.604 175.544 100.434 175.952C100.264 176.354 100.179 176.779 100.179 177.225C100.179 177.817 100.318 178.371 100.594 178.885C100.876 179.399 101.259 179.814 101.744 180.129C102.234 180.445 102.79 180.603 103.411 180.603Z" fill="#F5F5F5"/>
</svg>
