<svg width="254" height="254" viewBox="0 0 254 254" fill="none" xmlns="http://www.w3.org/2000/svg">
<g filter="url(#filter0_d_9_559)">
<rect x="15.3719" y="11.5293" width="223" height="223" rx="25.6198" fill="#C5AA7C"/>
</g>
<path d="M47.1207 204.194C47.0552 203.534 46.7741 203.02 46.2773 202.655C45.7806 202.289 45.1064 202.106 44.2548 202.106C43.6762 202.106 43.1877 202.188 42.7892 202.352C42.3907 202.51 42.085 202.731 41.8721 203.015C41.6647 203.299 41.5609 203.621 41.5609 203.981C41.55 204.281 41.6128 204.543 41.7493 204.767C41.8912 204.991 42.085 205.185 42.3306 205.349C42.5763 205.507 42.8601 205.646 43.1822 205.766C43.5043 205.881 43.8482 205.979 44.2139 206.061L45.7205 206.421C46.452 206.585 47.1234 206.803 47.7348 207.076C48.3462 207.349 48.8757 207.685 49.3233 208.083C49.7709 208.482 50.1176 208.951 50.3632 209.492C50.6143 210.032 50.7426 210.652 50.7481 211.351C50.7426 212.377 50.4806 213.267 49.962 214.02C49.4489 214.768 48.7065 215.349 47.7348 215.764C46.7686 216.173 45.6032 216.378 44.2385 216.378C42.8847 216.378 41.7056 216.171 40.7012 215.756C39.7022 215.341 38.9216 214.727 38.3594 213.913C37.8026 213.095 37.5105 212.082 37.4832 210.876H40.9141C40.9523 211.438 41.1133 211.907 41.3972 212.284C41.6865 212.655 42.0713 212.936 42.5517 213.127C43.0375 213.313 43.5861 213.406 44.1975 213.406C44.798 213.406 45.3193 213.318 45.7615 213.144C46.2091 212.969 46.5557 212.726 46.8014 212.415C47.047 212.104 47.1698 211.746 47.1698 211.342C47.1698 210.966 47.0579 210.649 46.8341 210.393C46.6158 210.136 46.2937 209.918 45.8679 209.737C45.4476 209.557 44.9317 209.394 44.3203 209.246L42.4944 208.788C41.0806 208.444 39.9642 207.906 39.1454 207.175C38.3266 206.443 37.9199 205.458 37.9254 204.219C37.9199 203.203 38.1901 202.316 38.736 201.558C39.2874 200.799 40.0434 200.206 41.0041 199.781C41.9649 199.355 43.0566 199.142 44.2794 199.142C45.524 199.142 46.6103 199.355 47.5383 199.781C48.4717 200.206 49.1978 200.799 49.7163 201.558C50.2349 202.316 50.5024 203.195 50.5188 204.194H47.1207ZM56.6538 216.378C55.8513 216.378 55.1362 216.239 54.5085 215.96C53.8807 215.677 53.384 215.259 53.0182 214.708C52.6579 214.151 52.4778 213.458 52.4778 212.628C52.4778 211.929 52.6061 211.342 52.8626 210.867C53.1192 210.393 53.4686 210.01 53.9107 209.721C54.3529 209.432 54.8551 209.213 55.4173 209.066C55.9851 208.919 56.5801 208.815 57.2024 208.755C57.9338 208.678 58.5234 208.608 58.971 208.542C59.4186 208.471 59.7434 208.367 59.9454 208.231C60.1474 208.094 60.2484 207.892 60.2484 207.625V207.576C60.2484 207.057 60.0846 206.656 59.7571 206.372C59.435 206.088 58.9765 205.946 58.3815 205.946C57.7537 205.946 57.2542 206.086 56.883 206.364C56.5118 206.637 56.2662 206.981 56.1461 207.396L52.92 207.134C53.0837 206.369 53.4058 205.709 53.8862 205.152C54.3665 204.59 54.9861 204.159 55.7449 203.858C56.5091 203.553 57.3934 203.4 58.3978 203.4C59.0966 203.4 59.7653 203.482 60.4039 203.645C61.0481 203.809 61.6185 204.063 62.1153 204.407C62.6175 204.751 63.0132 205.193 63.3025 205.733C63.5919 206.268 63.7365 206.91 63.7365 207.658V216.141H60.4285V214.397H60.3302C60.1283 214.79 59.8581 215.136 59.5196 215.436C59.1812 215.731 58.7745 215.963 58.2996 216.132C57.8247 216.296 57.2761 216.378 56.6538 216.378ZM57.6527 213.971C58.1658 213.971 58.6189 213.87 59.0119 213.668C59.405 213.46 59.7134 213.182 59.9372 212.833C60.161 212.483 60.2729 212.087 60.2729 211.645V210.311C60.1638 210.382 60.0136 210.447 59.8226 210.507C59.637 210.562 59.4268 210.614 59.1921 210.663C58.9574 210.706 58.7226 210.747 58.4879 210.786C58.2532 210.818 58.0403 210.848 57.8492 210.876C57.4398 210.936 57.0823 211.031 56.7766 211.162C56.4709 211.293 56.2334 211.471 56.0642 211.694C55.895 211.913 55.8104 212.186 55.8104 212.513C55.8104 212.988 55.9823 213.351 56.3262 213.602C56.6756 213.848 57.1178 213.971 57.6527 213.971ZM69.9309 208.87V216.141H66.4427V203.564H69.7671V205.783H69.9145C70.1929 205.051 70.6596 204.472 71.3147 204.047C71.9697 203.615 72.764 203.4 73.6974 203.4C74.5708 203.4 75.3323 203.591 75.9819 203.973C76.6315 204.355 77.1364 204.901 77.4967 205.611C77.857 206.315 78.0371 207.155 78.0371 208.133V216.141H74.549V208.755C74.5544 207.985 74.3579 207.385 73.9594 206.954C73.5609 206.517 73.0123 206.298 72.3136 206.298C71.8442 206.298 71.4293 206.399 71.069 206.601C70.7142 206.803 70.4358 207.098 70.2338 207.486C70.0373 207.868 69.9363 208.329 69.9309 208.87ZM85.4208 216.345C84.4655 216.345 83.6003 216.1 82.8252 215.608C82.0555 215.112 81.4441 214.383 80.991 213.422C80.5434 212.456 80.3196 211.271 80.3196 209.868C80.3196 208.427 80.5516 207.229 81.0156 206.274C81.4796 205.313 82.0964 204.595 82.8661 204.12C83.6412 203.64 84.4901 203.4 85.4126 203.4C86.1168 203.4 86.7036 203.52 87.1731 203.76C87.648 203.995 88.0301 204.29 88.3194 204.644C88.6142 204.994 88.838 205.338 88.9908 205.676H89.0973V199.371H92.5773V216.141H89.1382V214.126H88.9908C88.8271 214.476 88.5951 214.822 88.2948 215.166C88.0001 215.505 87.6152 215.786 87.1403 216.01C86.6709 216.233 86.0977 216.345 85.4208 216.345ZM86.5262 213.57C87.0885 213.57 87.5634 213.417 87.9509 213.111C88.344 212.8 88.6442 212.366 88.8516 211.809C89.0645 211.252 89.171 210.6 89.171 209.852C89.171 209.104 89.0673 208.455 88.8598 207.903C88.6524 207.352 88.3522 206.926 87.9591 206.626C87.5661 206.326 87.0885 206.176 86.5262 206.176C85.953 206.176 85.4699 206.331 85.0769 206.642C84.6839 206.954 84.3864 207.385 84.1844 207.936C83.9824 208.487 83.8814 209.126 83.8814 209.852C83.8814 210.584 83.9824 211.23 84.1844 211.793C84.3918 212.35 84.6893 212.786 85.0769 213.103C85.4699 213.414 85.953 213.57 86.5262 213.57Z" fill="white"/>
<path d="M43.5047 193.529L45.9502 178.623H47.4059L44.9604 193.529H43.5047ZM36.7212 189.395L36.9542 187.94H48.0755L47.8426 189.395H36.7212ZM38.2643 193.529L40.7098 178.623H42.1655L39.7199 193.529H38.2643ZM37.5947 184.213L37.8276 182.757H48.9489L48.716 184.213H37.5947ZM63.1017 183.281H61.2966C61.1899 182.762 61.0031 182.306 60.7362 181.913C60.4742 181.52 60.1539 181.19 59.7755 180.923C59.4018 180.651 58.987 180.448 58.5309 180.312C58.0748 180.176 57.5992 180.108 57.1043 180.108C56.2018 180.108 55.3842 180.336 54.6515 180.792C53.9237 181.248 53.3438 181.92 52.912 182.808C52.485 183.696 52.2715 184.786 52.2715 186.076C52.2715 187.367 52.485 188.456 52.912 189.344C53.3438 190.232 53.9237 190.904 54.6515 191.36C55.3842 191.816 56.2018 192.045 57.1043 192.045C57.5992 192.045 58.0748 191.977 58.5309 191.841C58.987 191.705 59.4018 191.503 59.7755 191.237C60.1539 190.965 60.4742 190.633 60.7362 190.239C61.0031 189.842 61.1899 189.385 61.2966 188.871H63.1017C62.9658 189.633 62.7183 190.315 62.3593 190.916C62.0002 191.518 61.5538 192.03 61.0201 192.452C60.4863 192.869 59.8871 193.187 59.2223 193.406C58.5624 193.624 57.8564 193.733 57.1043 193.733C55.833 193.733 54.7024 193.423 53.7126 192.801C52.7227 192.18 51.9439 191.297 51.3762 190.152C50.8085 189.007 50.5247 187.648 50.5247 186.076C50.5247 184.504 50.8085 183.145 51.3762 182C51.9439 180.855 52.7227 179.972 53.7126 179.351C54.7024 178.73 55.833 178.419 57.1043 178.419C57.8564 178.419 58.5624 178.529 59.2223 178.747C59.8871 178.965 60.4863 179.286 61.0201 179.708C61.5538 180.125 62.0002 180.634 62.3593 181.236C62.7183 181.833 62.9658 182.515 63.1017 183.281ZM70.4146 193.733C69.5606 193.733 68.7915 193.563 68.1074 193.224C67.4232 192.884 66.8749 192.418 66.4625 191.826C66.05 191.234 65.8244 190.56 65.7856 189.803H67.5324C67.6003 190.477 67.906 191.035 68.4495 191.477C68.9978 191.914 69.6528 192.132 70.4146 192.132C71.026 192.132 71.5694 191.989 72.045 191.702C72.5253 191.416 72.9014 191.023 73.1731 190.523C73.4497 190.019 73.588 189.449 73.588 188.813C73.588 188.163 73.4448 187.583 73.1586 187.073C72.8771 186.559 72.4889 186.154 71.994 185.858C71.4991 185.562 70.9338 185.411 70.2982 185.407C69.842 185.402 69.3738 185.472 68.8934 185.618C68.4131 185.758 68.0176 185.94 67.7071 186.164L66.0185 185.96L66.921 178.623H74.6652V180.224H68.4349L67.9109 184.621H67.9982C68.3039 184.378 68.6872 184.177 69.1482 184.016C69.6091 183.856 70.0895 183.776 70.5893 183.776C71.5015 183.776 72.3143 183.995 73.0275 184.431C73.7457 184.863 74.3085 185.455 74.7161 186.207C75.1286 186.959 75.3348 187.818 75.3348 188.784C75.3348 189.735 75.1213 190.584 74.6943 191.331C74.2721 192.074 73.6899 192.661 72.9475 193.093C72.2051 193.52 71.3608 193.733 70.4146 193.733ZM79.0995 193.529H77.2071L82.6805 178.623H84.5437L90.0171 193.529H88.1247L83.6703 180.981H83.5539L79.0995 193.529ZM79.7982 187.707H87.426V189.308H79.7982V187.707ZM92.9502 193.529H91.0579L96.5312 178.623H98.3945L103.868 193.529H101.975L97.521 180.981H97.4046L92.9502 193.529ZM93.649 187.707H101.277V189.308H93.649V187.707ZM106.393 193.529L113.06 180.341V180.224H105.374V178.623H114.924V180.312L108.286 193.529H106.393ZM129.893 183.281H128.088C127.982 182.762 127.795 182.306 127.528 181.913C127.266 181.52 126.946 181.19 126.567 180.923C126.194 180.651 125.779 180.448 125.323 180.312C124.866 180.176 124.391 180.108 123.896 180.108C122.994 180.108 122.176 180.336 121.443 180.792C120.715 181.248 120.136 181.92 119.704 182.808C119.277 183.696 119.063 184.786 119.063 186.076C119.063 187.367 119.277 188.456 119.704 189.344C120.136 190.232 120.715 190.904 121.443 191.36C122.176 191.816 122.994 192.045 123.896 192.045C124.391 192.045 124.866 191.977 125.323 191.841C125.779 191.705 126.194 191.503 126.567 191.237C126.946 190.965 127.266 190.633 127.528 190.239C127.795 189.842 127.982 189.385 128.088 188.871H129.893C129.758 189.633 129.51 190.315 129.151 190.916C128.792 191.518 128.346 192.03 127.812 192.452C127.278 192.869 126.679 193.187 126.014 193.406C125.354 193.624 124.648 193.733 123.896 193.733C122.625 193.733 121.494 193.423 120.504 192.801C119.514 192.18 118.736 191.297 118.168 190.152C117.6 189.007 117.316 187.648 117.316 186.076C117.316 184.504 117.6 183.145 118.168 182C118.736 180.855 119.514 179.972 120.504 179.351C121.494 178.73 122.625 178.419 123.896 178.419C124.648 178.419 125.354 178.529 126.014 178.747C126.679 178.965 127.278 179.286 127.812 179.708C128.346 180.125 128.792 180.634 129.151 181.236C129.51 181.833 129.758 182.515 129.893 183.281Z" fill="white"/>
<defs>
<filter id="filter0_d_9_559" x="-1.43051e-05" y="0.000370741" width="253.744" height="253.744" filterUnits="userSpaceOnUse" color-interpolation-filters="sRGB">
<feFlood flood-opacity="0" result="BackgroundImageFix"/>
<feColorMatrix in="SourceAlpha" type="matrix" values="0 0 0 0 0 0 0 0 0 0 0 0 0 0 0 0 0 0 127 0" result="hardAlpha"/>
<feOffset dy="3.84298"/>
<feGaussianBlur stdDeviation="7.68595"/>
<feComposite in2="hardAlpha" operator="out"/>
<feColorMatrix type="matrix" values="0 0 0 0 0.082135 0 0 0 0 0.0758995 0 0 0 0 0.387678 0 0 0 0.06 0"/>
<feBlend mode="normal" in2="BackgroundImageFix" result="effect1_dropShadow_9_559"/>
<feBlend mode="normal" in="SourceGraphic" in2="effect1_dropShadow_9_559" result="shape"/>
</filter>
</defs>
</svg>
