<svg width="215" height="295" viewBox="0 0 215 295" fill="none" xmlns="http://www.w3.org/2000/svg">
<mask id="path-1-inside-1_3_13" fill="white">
<path d="M165.293 245.393H165.409V245.238L165.293 245.393Z"/>
</mask>
<path d="M165.293 245.393L164.493 244.793L163.293 246.393H165.293V245.393ZM165.409 245.393V246.393H166.409V245.393H165.409ZM165.409 245.238H166.409V242.238L164.609 244.638L165.409 245.238ZM165.293 245.393V246.393H165.409V245.393V244.393H165.293V245.393ZM165.409 245.393H166.409V245.238H165.409H164.409V245.393H165.409ZM165.409 245.238L164.609 244.638L164.493 244.793L165.293 245.393L166.093 245.993L166.209 245.838L165.409 245.238Z" fill="#FFFFFF" mask="url(#path-1-inside-1_3_13)"/>
<path d="M49.5911 230.237H77.8479C78.2743 230.237 78.6232 229.888 78.6232 229.462V196.747C78.6232 196.321 78.972 195.972 79.3984 195.972H112.752C113.179 195.972 113.527 195.623 113.527 195.197V164.421C113.527 163.994 113.876 163.645 114.283 163.645H146.998C147.424 163.645 147.773 163.297 147.773 162.87V139.207C147.773 138.78 148.122 138.431 148.548 138.431H165.409V132.016C165.409 86.4722 128.489 49.5522 82.9644 49.5522C73.0222 49.5522 63.5257 51.4128 54.6882 54.6299C51.471 63.4675 49.6105 72.9639 49.6105 82.9061V230.198L49.5911 230.237Z" stroke="#FFFFFF"/>
<path d="M165.293 245.392H51.7615C50.5599 245.392 49.5909 244.423 49.5909 243.222V82.9642C49.5909 73.022 51.4514 63.5255 54.6686 54.688C23.0783 66.2388 0.5 96.453 0.5 132.055V292.313C0.5 293.514 1.46903 294.483 2.67062 294.483H163.238C164.44 294.483 165.409 293.514 165.409 292.313V245.392H165.293Z" stroke="#FFFFFF"/>
<path d="M132.055 0.5C96.4725 0.5 66.2389 23.0977 54.6881 54.6686C63.5256 51.432 73.0221 49.5909 82.9643 49.5909C128.509 49.5909 165.409 86.5108 165.409 132.055V245.392H212.329C213.531 245.392 214.5 244.423 214.5 243.222V82.9641C214.5 37.4199 177.58 0.5 132.055 0.5Z" stroke="#FFFFFF"/>
</svg>
