<svg width="522" height="718" viewBox="0 0 522 718" fill="none" xmlns="http://www.w3.org/2000/svg">
<mask id="path-1-inside-1_9_87" fill="white">
<path d="M401.971 597.355H402.255V596.977L401.971 597.355Z"/>
</mask>
<path d="M401.971 597.355L401.171 596.756L399.971 598.355H401.971V597.355ZM402.255 597.355V598.355H403.255V597.355H402.255ZM402.255 596.977H403.255V593.977L401.455 596.377L402.255 596.977ZM401.971 597.355V598.355H402.255V597.355V596.355H401.971V597.355ZM402.255 597.355H403.255V596.977H402.255H401.255V597.355H402.255ZM402.255 596.977L401.455 596.377L401.171 596.756L401.971 597.355L402.771 597.955L403.055 597.577L402.255 596.977Z" fill="white" mask="url(#path-1-inside-1_9_87)"/>
<path d="M201.152 120.151C311.922 120.151 401.755 209.985 401.755 320.802V335.95H361.126C359.81 335.95 358.736 337.025 358.736 338.341V396.062C358.736 396.826 358.108 397.453 357.344 397.453H277.546C276.269 397.453 275.203 398.537 275.203 399.844V474.916C275.202 475.679 274.576 476.306 273.812 476.306H192.453C191.137 476.307 190.062 477.381 190.062 478.697V558.496C190.062 559.26 189.435 559.886 188.671 559.886H120.292V201.01C120.293 176.903 124.79 153.872 132.57 132.427C154.014 124.647 177.046 120.151 201.152 120.151Z" stroke="white"/>
<path d="M361.08 337.139H401.708V596.904L401.674 596.949H125.041C122.386 596.949 120.246 594.809 120.246 592.154V560.981H188.671C189.987 560.981 191.062 559.906 191.062 558.59V478.792C191.062 478.028 191.689 477.401 192.453 477.4H273.812C275.128 477.4 276.203 476.326 276.203 475.01V399.938C276.203 399.158 276.799 398.548 277.546 398.548H357.345C358.661 398.548 359.736 397.472 359.736 396.156V338.436L359.693 338.425C359.747 337.709 360.351 337.139 361.08 337.139Z" stroke="white"/>
<path d="M131.298 133.02C123.657 154.34 119.245 177.216 119.245 201.151V592.06C119.245 595.267 121.833 597.854 125.04 597.854H401.755V711.805C401.755 714.46 399.615 716.599 396.96 716.599H5.29492C2.64018 716.599 0.500164 714.46 0.5 711.805V320.896L0.509766 318.869C1.35551 233.503 55.5567 161.175 131.298 133.02Z" stroke="white"/>
<path d="M320.896 0.5C431.667 0.5 521.5 90.3335 521.5 201.151V592.06C521.5 594.714 519.36 596.854 516.705 596.854H402.755V320.896C402.754 209.526 312.521 119.245 201.151 119.245C177.217 119.245 154.342 123.61 133.021 131.295C161.4 55.0028 234.698 0.500013 320.896 0.5Z" stroke="white"/>
</svg>
