<svg width="290" height="398" viewBox="0 0 290 398" fill="none" xmlns="http://www.w3.org/2000/svg">
<path d="M199.286 187.747V219.768C199.286 220.345 198.814 220.817 198.237 220.817H153.969C153.392 220.817 152.946 221.289 152.946 221.866V263.512C152.946 264.089 152.474 264.561 151.897 264.561H106.764C106.187 264.561 105.715 265.033 105.715 265.61V309.878C105.715 310.455 105.242 310.927 104.666 310.927H66.429V328.498C66.429 330.124 67.7403 331.435 69.3663 331.435H222.968L223.125 331.226V186.75H200.309C199.732 186.75 199.26 187.222 199.26 187.799L199.286 187.747Z" fill="#FFFFFF" fill-opacity="0.85"/>
<path d="M222.994 331.383H69.366C67.7401 331.383 66.4288 330.072 66.4288 328.446V111.589C66.4288 98.135 68.9464 85.2846 73.2998 73.3258C30.5526 88.9561 6.10352e-05 129.841 6.10352e-05 178.017V394.875C6.10352e-05 396.5 1.31133 397.812 2.9373 397.812H220.214C221.84 397.812 223.151 396.5 223.151 394.875V331.383H222.994Z" fill="#FFFFFF"/>
<path d="M178.017 0C129.868 0 88.9563 30.5787 73.326 73.2998C85.2847 68.9202 98.1351 66.4287 111.589 66.4287C173.218 66.4287 223.151 116.388 223.151 178.017V331.383H286.643C288.269 331.383 289.58 330.072 289.58 328.446V111.589C289.58 49.9592 239.621 0 178.017 0Z" fill="#FFFFFF"/>
</svg>
