<svg width="643" height="884" viewBox="0 0 643 884" fill="none" xmlns="http://www.w3.org/2000/svg">
<g opacity="0.2">
<path d="M442.505 416.882V487.983C442.505 489.264 441.457 490.313 440.176 490.313H341.88C340.599 490.313 339.609 491.361 339.609 492.642V585.114C339.609 586.395 338.561 587.443 337.28 587.443H237.062C235.781 587.443 234.733 588.492 234.733 589.773V688.068C234.733 689.349 233.685 690.398 232.404 690.398H147.502V729.413C147.502 733.023 150.413 735.935 154.024 735.935H495.088L495.438 735.469V414.669H444.776C443.495 414.669 442.447 415.717 442.447 416.998L442.505 416.882Z" fill="white" fill-opacity="0.46"/>
<path d="M495.146 735.819H154.024C150.413 735.819 147.502 732.907 147.502 729.297V247.777C147.502 217.904 153.092 189.37 162.758 162.816C67.8403 197.522 0 288.306 0 395.278V876.798C0 880.409 2.9116 883.32 6.52198 883.32H488.974C492.584 883.32 495.496 880.409 495.496 876.798V735.819H495.146Z" fill="white"/>
<path d="M395.281 0C288.367 0 197.525 67.8985 162.819 162.758C189.373 153.034 217.907 147.502 247.78 147.502C384.625 147.502 495.498 258.433 495.498 395.279V735.819H636.478C640.088 735.819 643 732.908 643 729.297V247.777C643 110.932 532.068 0 395.281 0Z" fill="white"/>
</g>
</svg>
