<svg width="616" height="846" viewBox="0 0 616 846" fill="none" xmlns="http://www.w3.org/2000/svg">
<path d="M474.462 704.185H147.576C144.172 704.185 141.318 701.334 141.318 697.934V237.105C141.318 208.481 146.698 181.173 155.921 155.84C65.0039 189.07 0 275.928 0 378.358V839.188C0 842.588 2.7451 845.439 6.25882 845.439H468.533C471.937 845.439 474.792 842.588 474.792 839.188V704.295H474.462V704.185Z" fill="#EF462E" fill-opacity="0.3"/>
<path d="M378.714 0C276.267 0 189.192 64.9241 155.922 155.84C181.396 146.518 208.737 141.254 237.286 141.254C368.392 141.254 474.682 247.414 474.682 378.358V704.295H609.741C613.145 704.295 616 701.444 616 698.044V237.105C616.219 106.16 509.929 0 378.714 0Z" fill="#EF462E" fill-opacity="0.3"/>
</svg>
